<svg xmlns="http://www.w3.org/2000/svg" viewBox="0 0 100 100"><style>path{fill:#181818}@media(prefers-color-scheme:dark){path{fill:#f2f2f2}}</style><path d="M50.70 50.00 L50.77 50.02 L50.83 50.05 L50.90 50.08 L50.96 50.11 L51.02 50.15 L51.08 50.19 L51.14 50.23 L51.20 50.28 L51.26 50.33 L51.31 50.39 L51.36 50.45 L51.41 50.51 L51.46 50.57 L51.51 50.64 L51.55 50.71 L51.59 50.78 L51.62 50.86 L51.65 50.94 L51.68 51.02 L51.71 51.11 L51.73 51.19 L51.75 51.28 L51.77 51.37 L51.78 51.47 L51.79 51.56 L51.79 51.66 L51.79 51.75 L51.78 51.85 L51.78 51.95 L51.76 52.05 L51.74 52.16 L51.72 52.26 L51.70 52.36 L51.66 52.46 L51.63 52.57 L51.59 52.67 L51.54 52.77 L51.49 52.88 L51.44 52.98 L51.38 53.08 L51.32 53.18 L51.25 53.28 L51.18 53.38 L51.10 53.47 L51.02 53.57 L50.93 53.66 L50.84 53.75 L50.75 53.84 L50.65 53.92 L50.54 54.01 L50.43 54.09 L50.32 54.16 L50.21 54.24 L50.09 54.31 L49.96 54.38 L49.83 54.44 L49.70 54.50 L49.57 54.56 L49.43 54.61 L49.28 54.66 L49.14 54.70 L48.99 54.74 L48.84 54.77 L48.68 54.80 L48.53 54.83 L48.37 54.85 L48.21 54.86 L48.04 54.87 L47.88 54.87 L47.71 54.87 L47.54 54.86 L47.37 54.85 L47.20 54.83 L47.03 54.80 L46.85 54.77 L46.68 54.73 L46.50 54.69 L46.33 54.64 L46.15 54.58 L45.98 54.52 L45.81 54.45 L45.63 54.38 L45.46 54.29 L45.29 54.21 L45.12 54.11 L44.95 54.01 L44.78 53.91 L44.62 53.79 L44.46 53.67 L44.30 53.55 L44.14 53.42 L43.98 53.28 L43.83 53.14 L43.69 52.99 L43.54 52.83 L43.40 52.67 L43.26 52.50 L43.13 52.33 L43.00 52.15 L42.88 51.96 L42.76 51.78 L42.65 51.58 L42.54 51.38 L42.44 51.18 L42.34 50.97 L42.25 50.75 L42.16 50.54 L42.09 50.31 L42.01 50.09 L41.95 49.86 L41.89 49.62 L41.84 49.38 L41.79 49.14 L41.75 48.90 L41.72 48.65 L41.70 48.40 L41.68 48.15 L41.67 47.89 L41.67 47.64 L41.68 47.38 L41.70 47.12 L41.72 46.86 L41.75 46.60 L41.79 46.33 L41.84 46.07 L41.90 45.81 L41.96 45.54 L42.04 45.28 L42.12 45.02 L42.21 44.76 L42.31 44.50 L42.42 44.24 L42.53 43.98 L42.66 43.72 L42.79 43.47 L42.93 43.22 L43.08 42.97 L43.24 42.73 L43.41 42.49 L43.59 42.25 L43.77 42.01 L43.96 41.79 L44.16 41.56 L44.37 41.34 L44.59 41.13 L44.81 40.92 L45.04 40.71 L45.28 40.51 L45.53 40.32 L45.78 40.13 L46.04 39.96 L46.31 39.78 L46.59 39.62 L46.87 39.46 L47.15 39.31 L47.45 39.17 L47.74 39.03 L48.05 38.91 L48.36 38.79 L48.67 38.68 L48.99 38.58 L49.32 38.49 L49.65 38.41 L49.98 38.34 L50.32 38.27 L50.66 38.22 L51.00 38.18 L51.35 38.14 L51.70 38.12 L52.05 38.11 L52.40 38.11 L52.76 38.12 L53.11 38.14 L53.47 38.17 L53.83 38.21 L54.19 38.26 L54.55 38.32 L54.91 38.40 L55.27 38.48 L55.63 38.58 L55.98 38.68 L56.34 38.80 L56.69 38.93 L57.05 39.07 L57.39 39.22 L57.74 39.39 L58.08 39.56 L58.42 39.75 L58.76 39.94 L59.09 40.15 L59.41 40.36 L59.73 40.59 L60.05 40.83 L60.36 41.08 L60.66 41.34 L60.96 41.61 L61.25 41.89 L61.53 42.18 L61.81 42.47 L62.08 42.78 L62.34 43.10 L62.59 43.43 L62.84 43.76 L63.07 44.11 L63.30 44.46 L63.51 44.82 L63.72 45.19 L63.92 45.56 L64.10 45.94 L64.28 46.33 L64.44 46.73 L64.60 47.13 L64.74 47.54 L64.87 47.96 L64.99 48.38 L65.09 48.81 L65.19 49.24 L65.27 49.67 L65.34 50.11 L65.40 50.55 L65.44 51.00 L65.47 51.45 L65.49 51.90 L65.50 52.35 L65.49 52.81 L65.47 53.27 L65.43 53.73 L65.38 54.19 L65.32 54.65 L65.25 55.11 L65.15 55.56 L65.05 56.02 L64.93 56.48 L64.80 56.93 L64.66 57.38 L64.50 57.83 L64.32 58.28 L64.14 58.72 L63.94 59.16 L63.72 59.60 L63.49 60.03 L63.25 60.45 L63.00 60.87 L62.73 61.29 L62.45 61.69 L62.16 62.09 L61.85 62.48 L61.53 62.87 L61.20 63.25 L60.86 63.62 L60.50 63.97 L60.14 64.33 L59.76 64.67 L59.37 65.00 L58.97 65.32 L58.55 65.63 L58.13 65.93 L57.70 66.21 L57.26 66.49 L56.81 66.75 L56.35 67.00 L55.88 67.24 L55.40 67.47 L54.91 67.68 L54.42 67.88 L53.92 68.06 L53.41 68.23 L52.90 68.39 L52.38 68.53 L51.85 68.66 L51.32 68.77 L50.78 68.87 L50.24 68.95 L49.69 69.02 L49.14 69.07 L48.59 69.10 L48.04 69.12 L47.48 69.12 L46.92 69.11 L46.36 69.08 L45.80 69.03 L45.24 68.97 L44.68 68.89 L44.12 68.79 L43.56 68.67 L43.00 68.54 L42.45 68.40 L41.89 68.23 L41.35 68.05 L40.80 67.86 L40.26 67.64 L39.72 67.42 L39.19 67.17 L38.66 66.91 L38.14 66.63 L37.63 66.34 L37.13 66.03 L36.63 65.70 L36.14 65.36 L35.66 65.00 L35.18 64.63 L34.72 64.25 L34.27 63.85 L33.82 63.43 L33.39 63.00 L32.97 62.56 L32.56 62.10 L32.17 61.63 L31.78 61.15 L31.41 60.66 L31.06 60.15 L30.71 59.63 L30.38 59.10 L30.07 58.56 L29.77 58.01 L29.48 57.45 L29.21 56.88 L28.96 56.30 L28.72 55.71 L28.50 55.11 L28.30 54.50 L28.12 53.89 L27.95 53.27 L27.80 52.64 L27.66 52.01 L27.55 51.37 L27.45 50.73 L27.37 50.08 L27.31 49.43 L27.27 48.77 L27.25 48.12 L27.25 47.46 L27.26 46.80 L27.30 46.13 L27.35 45.47 L27.43 44.80 L27.52 44.14 L27.63 43.48 L27.77 42.82 L27.92 42.16 L28.09 41.51 L28.28 40.86 L28.49 40.21 L28.72 39.56 L28.97 38.93 L29.24 38.29 L29.53 37.67 L29.83 37.05 L30.16 36.44 L30.50 35.83 L30.86 35.24 L31.24 34.65 L31.64 34.08 L32.06 33.51 L32.49 32.96 L32.94 32.41 L33.41 31.88 L33.89 31.36 L34.39 30.85 L34.91 30.36 L35.44 29.88 L35.98 29.42 L36.55 28.97 L37.12 28.53 L37.71 28.11 L38.31 27.71 L38.93 27.32 L39.56 26.95 L40.20 26.60 L40.85 26.27 L41.51 25.95 L42.19 25.65 L42.87 25.37 L43.56 25.11 L44.27 24.87 L44.98 24.65 L45.70 24.46 L46.42 24.28 L47.15 24.12 L47.89 23.98 L48.64 23.86 L49.39 23.77 L50.14 23.69 L50.90 23.64 L51.66 23.61 L52.42 23.60 L53.19 23.62 L53.95 23.65 L54.72 23.71 L55.49 23.79 L56.25 23.90 L57.02 24.02 L57.78 24.17 L58.54 24.34 L59.30 24.54 L60.05 24.75 L60.80 24.99 L61.54 25.25 L62.27 25.53 L63.00 25.83 L63.73 26.16 L64.44 26.51 L65.15 26.88 L65.84 27.26 L66.53 27.68 L67.20 28.11 L67.87 28.56 L68.52 29.03 L69.16 29.52 L69.79 30.03 L70.40 30.56 L71.00 31.11 L71.59 31.68 L72.16 32.27 L72.71 32.87 L73.25 33.49 L73.77 34.13 L74.27 34.78 L74.75 35.45 L75.22 36.14 L75.67 36.83 L76.10 37.55 L76.50 38.28 L76.89 39.02 L77.26 39.77 L77.60 40.54 L77.93 41.31 L78.23 42.10 L78.51 42.90 L78.77 43.71 L79.00 44.52 L79.21 45.35 L79.40 46.18 L79.57 47.02 L79.71 47.86 L79.82 48.71 L79.91 49.57 L79.98 50.43 L80.02 51.29 L80.04 52.16 L80.03 53.03 L80.00 53.90 L79.94 54.77 L79.86 55.64 L79.75 56.51 L79.61 57.38 L79.45 58.24 L79.27 59.10 L79.06 59.96 L78.82 60.82 L78.56 61.67 L78.28 62.51 L77.97 63.34 L77.63 64.17 L77.27 64.99 L76.89 65.80 L76.48 66.60 L76.05 67.39 L75.59 68.17 L75.11 68.94 L74.61 69.70 L74.08 70.44 L73.54 71.17 L72.97 71.88 L72.38 72.58 L71.76 73.26 L71.13 73.93 L70.48 74.57 L69.81 75.21 L69.11 75.82 L68.40 76.41 L67.67 76.98 L66.93 77.54 L66.16 78.07 L65.38 78.58 L64.58 79.07 L63.77 79.54 L62.94 79.98 L62.10 80.40 L61.25 80.80 L60.38 81.18 L59.50 81.53 L58.61 81.85 L57.70 82.15 L56.79 82.42 L55.87 82.67 L54.94 82.89 L54.00 83.09 L53.05 83.25 L52.10 83.39 L51.14 83.51 L50.18 83.59 L49.21 83.65 L48.24 83.68 L47.27 83.68 L46.30 83.66 L45.33 83.60 L44.35 83.52 L43.38 83.41 L42.41 83.27 L41.44 83.11 L40.47 82.91 L39.51 82.69 L38.55 82.44 L37.60 82.16 L36.66 81.85 L35.72 81.51 L34.79 81.15 L33.87 80.76 L32.96 80.34 L32.06 79.90 L31.18 79.43 L30.30 78.93 L29.44 78.40 L28.59 77.86 L27.76 77.28 L26.94 76.68 L26.14 76.06 L25.35 75.41 L24.59 74.74 L23.84 74.04 L23.11 73.33 L22.40 72.59 L21.71 71.82 L21.04 71.04 L20.39 70.24 L19.76 69.42 L19.16 68.58 L18.58 67.72 L18.03 66.84 L17.50 65.94 L16.99 65.03 L16.51 64.10 L16.06 63.16 L15.63 62.20 L15.23 61.23 L14.86 60.24 L14.52 59.25 L14.20 58.24 L13.91 57.22 L13.65 56.19 L13.42 55.16 L13.23 54.11 L13.06 53.06 L12.92 52.00 L12.81 50.93 L12.73 49.87 L12.68 48.79 L12.67 47.72 L12.68 46.64 L12.72 45.56 L12.80 44.48 L12.91 43.41 L13.05 42.33 L13.22 41.26 L13.42 40.19 L13.65 39.12 L13.92 38.06 L14.21 37.01 L14.54 35.96 L14.89 34.92 L15.28 33.89 L15.70 32.87 L16.15 31.86 L16.62 30.86 L17.13 29.88 L17.66 28.90 L18.23 27.95 L18.82 27.00 L19.44 26.08 L20.09 25.17 L20.77 24.27 L21.47 23.40 L22.20 22.54 L22.95 21.71 L23.73 20.89 L24.53 20.10 L25.36 19.33 L26.21 18.58 L27.08 17.86 L27.98 17.15 L28.90 16.48 L29.83 15.83 L30.79 15.21 L31.77 14.61 L32.76 14.04 L33.77 13.50 L34.80 12.99 L35.85 12.50 L36.91 12.05 L37.99 11.62 L39.08 11.23 L40.18 10.87 L41.29 10.54 L42.41 10.24 L43.55 9.97 L44.69 9.73 L45.84 9.53 L47.00 9.36 L48.17 9.23 L49.34 9.12 L50.51 9.06 L51.69 9.02 L52.87 9.02 L54.06 9.05 L55.24 9.12 L56.42 9.22 L57.60 9.36 L58.78 9.53 L59.96 9.73 L61.13 9.97 L62.29 10.24 L63.45 10.55 L64.60 10.89 L65.74 11.26 L66.88 11.67 L68.00 12.11 L69.11 12.58 L70.21 13.08 L71.29 13.62 L72.37 14.19 L73.42 14.79 L74.46 15.43 L75.48 16.09 L76.49 16.78 L77.48 17.51 L78.44 18.26 L79.39 19.04 L80.31 19.85 L81.21 20.69 L82.09 21.55 L82.95 22.44 L83.78 23.36 L84.58 24.30 L85.36 25.27 L86.11 26.25 L86.84 27.27 L87.53 28.30 L88.20 29.36 L88.84 30.43 L89.44 31.53 L90.02 32.64 L90.56 33.77 L91.08 34.92 L91.55 36.08 L92.00 37.26 L92.41 38.46 L92.79 39.67 L93.14 40.88 L93.45 42.12 L93.72 43.36 L93.96 44.61 L94.16 45.87 L94.33 47.13 L94.46 48.40 L94.56 49.68 L94.61 50.96 L94.64 52.25 L94.62 53.53 L94.57 54.82 L94.48 56.11 L94.35 57.39 L94.18 58.68 L93.98 59.96 L93.74 61.23 L93.46 62.50 L93.15 63.76 L92.80 65.02 L92.42 66.27 L91.99 67.50 L91.53 68.73 L91.04 69.94 L90.51 71.15 L89.94 72.33 L89.34 73.51 L88.71 74.66 L88.04 75.80 L87.34 76.92 L86.60 78.02 L85.83 79.10 L85.03 80.17 L84.20 81.20 L83.34 82.22 L82.45 83.21 L81.52 84.18 L80.57 85.12 L79.59 86.04 L78.59 86.92 L77.56 87.78 L76.50 88.61 L75.41 89.42 L74.31 90.19 L73.17 90.93 L72.02 91.63 L70.85 92.31 L69.65 92.95 L68.43 93.56 L67.20 94.13 L65.95 94.67 L64.68 95.18 A4.50 4.50 0 0 1 61.90 86.62 L62.92 86.21 L63.94 85.77 L64.94 85.30 L65.92 84.81 L66.89 84.28 L67.84 83.74 L68.78 83.16 L69.69 82.56 L70.59 81.93 L71.47 81.28 L72.32 80.61 L73.16 79.91 L73.97 79.19 L74.76 78.45 L75.53 77.68 L76.28 76.90 L77.00 76.09 L77.70 75.27 L78.37 74.43 L79.01 73.57 L79.63 72.69 L80.23 71.80 L80.80 70.89 L81.34 69.97 L81.85 69.03 L82.33 68.08 L82.79 67.12 L83.22 66.14 L83.62 65.16 L83.99 64.17 L84.33 63.16 L84.64 62.15 L84.92 61.14 L85.17 60.12 L85.39 59.09 L85.58 58.05 L85.75 57.02 L85.88 55.98 L85.98 54.94 L86.05 53.90 L86.09 52.86 L86.10 51.82 L86.08 50.78 L86.04 49.74 L85.96 48.71 L85.85 47.68 L85.71 46.66 L85.55 45.64 L85.35 44.63 L85.13 43.63 L84.87 42.63 L84.59 41.65 L84.29 40.67 L83.95 39.71 L83.59 38.75 L83.20 37.81 L82.78 36.88 L82.34 35.97 L81.87 35.07 L81.38 34.19 L80.86 33.32 L80.32 32.47 L79.76 31.63 L79.17 30.82 L78.57 30.02 L77.94 29.24 L77.28 28.48 L76.61 27.74 L75.92 27.02 L75.21 26.33 L74.48 25.65 L73.73 25.00 L72.96 24.37 L72.18 23.77 L71.39 23.18 L70.57 22.62 L69.75 22.09 L68.91 21.58 L68.05 21.10 L67.19 20.64 L66.31 20.21 L65.42 19.80 L64.52 19.42 L63.62 19.07 L62.70 18.74 L61.78 18.44 L60.85 18.17 L59.91 17.93 L58.97 17.71 L58.03 17.52 L57.08 17.36 L56.13 17.22 L55.18 17.11 L54.22 17.03 L53.27 16.98 L52.32 16.96 L51.36 16.96 L50.41 16.99 L49.47 17.05 L48.52 17.13 L47.58 17.24 L46.65 17.38 L45.72 17.55 L44.80 17.74 L43.89 17.96 L42.98 18.20 L42.09 18.47 L41.20 18.76 L40.32 19.08 L39.46 19.43 L38.60 19.80 L37.76 20.19 L36.93 20.60 L36.12 21.04 L35.32 21.50 L34.53 21.98 L33.76 22.49 L33.01 23.01 L32.27 23.56 L31.55 24.12 L30.85 24.71 L30.17 25.31 L29.50 25.93 L28.86 26.57 L28.23 27.23 L27.63 27.91 L27.04 28.60 L26.48 29.30 L25.94 30.02 L25.42 30.75 L24.92 31.50 L24.45 32.26 L23.99 33.03 L23.56 33.82 L23.16 34.61 L22.78 35.41 L22.42 36.23 L22.09 37.05 L21.78 37.88 L21.49 38.71 L21.23 39.56 L21.00 40.40 L20.79 41.26 L20.60 42.11 L20.44 42.97 L20.31 43.84 L20.20 44.70 L20.11 45.57 L20.06 46.44 L20.02 47.30 L20.01 48.17 L20.03 49.03 L20.07 49.89 L20.13 50.75 L20.22 51.61 L20.34 52.46 L20.48 53.30 L20.64 54.14 L20.82 54.97 L21.03 55.80 L21.27 56.61 L21.52 57.42 L21.80 58.22 L22.10 59.01 L22.43 59.79 L22.77 60.56 L23.14 61.31 L23.52 62.06 L23.93 62.79 L24.36 63.50 L24.81 64.21 L25.27 64.90 L25.76 65.57 L26.26 66.23 L26.78 66.87 L27.32 67.50 L27.87 68.10 L28.45 68.70 L29.03 69.27 L29.64 69.82 L30.25 70.36 L30.88 70.88 L31.53 71.38 L32.18 71.85 L32.85 72.31 L33.53 72.75 L34.23 73.17 L34.93 73.56 L35.64 73.94 L36.36 74.29 L37.09 74.62 L37.83 74.93 L38.57 75.22 L39.32 75.49 L40.08 75.73 L40.84 75.95 L41.61 76.15 L42.38 76.33 L43.15 76.48 L43.93 76.62 L44.70 76.72 L45.48 76.81 L46.26 76.87 L47.04 76.91 L47.82 76.93 L48.60 76.93 L49.37 76.90 L50.14 76.85 L50.91 76.78 L51.68 76.69 L52.44 76.57 L53.20 76.44 L53.94 76.28 L54.69 76.10 L55.42 75.90 L56.15 75.68 L56.87 75.44 L57.58 75.17 L58.29 74.89 L58.98 74.59 L59.66 74.27 L60.33 73.93 L60.99 73.58 L61.64 73.20 L62.27 72.81 L62.90 72.40 L63.50 71.97 L64.10 71.53 L64.68 71.07 L65.24 70.59 L65.79 70.10 L66.33 69.60 L66.85 69.08 L67.35 68.54 L67.84 68.00 L68.31 67.44 L68.76 66.87 L69.19 66.29 L69.61 65.69 L70.01 65.09 L70.39 64.48 L70.75 63.86 L71.09 63.22 L71.41 62.58 L71.71 61.94 L72.00 61.28 L72.26 60.62 L72.51 59.96 L72.73 59.29 L72.94 58.61 L73.12 57.93 L73.29 57.24 L73.43 56.56 L73.56 55.87 L73.66 55.18 L73.74 54.49 L73.81 53.79 L73.85 53.10 L73.87 52.41 L73.88 51.72 L73.86 51.03 L73.83 50.34 L73.77 49.66 L73.69 48.98 L73.60 48.30 L73.48 47.63 L73.35 46.96 L73.20 46.30 L73.03 45.65 L72.84 45.00 L72.63 44.36 L72.41 43.73 L72.16 43.11 L71.90 42.49 L71.63 41.88 L71.33 41.29 L71.02 40.70 L70.70 40.12 L70.35 39.56 L70.00 39.01 L69.63 38.46 L69.24 37.94 L68.84 37.42 L68.42 36.92 L67.99 36.43 L67.55 35.95 L67.10 35.49 L66.63 35.04 L66.16 34.61 L65.67 34.19 L65.17 33.79 L64.66 33.40 L64.14 33.03 L63.62 32.67 L63.08 32.33 L62.53 32.01 L61.98 31.71 L61.42 31.42 L60.86 31.15 L60.28 30.89 L59.70 30.65 L59.12 30.43 L58.53 30.23 L57.94 30.05 L57.35 29.88 L56.75 29.73 L56.15 29.60 L55.54 29.48 L54.94 29.39 L54.33 29.31 L53.73 29.25 L53.12 29.20 L52.52 29.18 L51.91 29.17 L51.31 29.18 L50.71 29.21 L50.11 29.25 L49.52 29.31 L48.93 29.39 L48.34 29.49 L47.76 29.60 L47.18 29.73 L46.61 29.87 L46.04 30.03 L45.48 30.21 L44.93 30.40 L44.39 30.61 L43.85 30.83 L43.32 31.07 L42.80 31.32 L42.29 31.59 L41.78 31.87 L41.29 32.16 L40.81 32.47 L40.34 32.79 L39.87 33.12 L39.42 33.47 L38.98 33.82 L38.56 34.19 L38.14 34.57 L37.74 34.96 L37.35 35.36 L36.97 35.77 L36.61 36.19 L36.26 36.62 L35.92 37.06 L35.60 37.51 L35.29 37.96 L34.99 38.42 L34.71 38.89 L34.44 39.37 L34.19 39.85 L33.95 40.33 L33.73 40.83 L33.52 41.32 L33.33 41.83 L33.16 42.33 L32.99 42.84 L32.85 43.35 L32.72 43.87 L32.60 44.38 L32.50 44.90 L32.42 45.42 L32.35 45.94 L32.29 46.46 L32.25 46.98 L32.23 47.50 L32.22 48.01 L32.22 48.53 L32.25 49.04 L32.28 49.55 L32.33 50.06 L32.40 50.57 L32.48 51.07 L32.57 51.57 L32.68 52.06 L32.80 52.55 L32.94 53.03 L33.08 53.51 L33.25 53.98 L33.42 54.45 L33.61 54.91 L33.81 55.36 L34.02 55.80 L34.25 56.24 L34.49 56.66 L34.74 57.08 L35.00 57.49 L35.27 57.89 L35.55 58.29 L35.84 58.67 L36.14 59.04 L36.45 59.40 L36.77 59.76 L37.10 60.10 L37.44 60.43 L37.79 60.75 L38.14 61.06 L38.50 61.35 L38.87 61.64 L39.25 61.91 L39.63 62.17 L40.02 62.42 L40.42 62.66 L40.82 62.88 L41.22 63.09 L41.63 63.29 L42.04 63.48 L42.46 63.65 L42.88 63.81 L43.31 63.96 L43.73 64.10 L44.16 64.22 L44.59 64.33 L45.02 64.43 L45.46 64.51 L45.89 64.58 L46.33 64.64 L46.76 64.68 L47.19 64.71 L47.63 64.73 L48.06 64.74 L48.49 64.73 L48.91 64.72 L49.34 64.69 L49.76 64.64 L50.18 64.59 L50.60 64.52 L51.01 64.44 L51.42 64.35 L51.83 64.25 L52.23 64.13 L52.62 64.01 L53.01 63.87 L53.39 63.73 L53.77 63.57 L54.14 63.40 L54.51 63.22 L54.87 63.04 L55.22 62.84 L55.56 62.63 L55.90 62.42 L56.23 62.19 L56.55 61.96 L56.86 61.72 L57.16 61.47 L57.46 61.21 L57.75 60.95 L58.02 60.68 L58.29 60.40 L58.55 60.11 L58.80 59.82 L59.04 59.52 L59.27 59.22 L59.49 58.91 L59.70 58.60 L59.90 58.28 L60.09 57.96 L60.27 57.63 L60.44 57.30 L60.60 56.97 L60.75 56.63 L60.88 56.29 L61.01 55.95 L61.13 55.61 L61.23 55.26 L61.33 54.91 L61.41 54.57 L61.49 54.22 L61.55 53.87 L61.60 53.52 L61.64 53.17 L61.68 52.82 L61.70 52.47 L61.71 52.12 L61.71 51.78 L61.70 51.44 L61.68 51.09 L61.65 50.75 L61.61 50.42 L61.56 50.08 L61.51 49.75 L61.44 49.42 L61.36 49.10 L61.27 48.78 L61.18 48.47 L61.08 48.15 L60.96 47.85 L60.84 47.55 L60.71 47.25 L60.58 46.96 L60.43 46.67 L60.28 46.39 L60.12 46.12 L59.95 45.85 L59.78 45.59 L59.59 45.34 L59.41 45.09 L59.21 44.85 L59.01 44.61 L58.81 44.39 L58.60 44.17 L58.38 43.96 L58.16 43.75 L57.93 43.56 L57.70 43.37 L57.47 43.19 L57.23 43.01 L56.99 42.85 L56.74 42.69 L56.49 42.54 L56.24 42.40 L55.98 42.27 L55.73 42.15 L55.47 42.03 L55.20 41.93 L54.94 41.83 L54.68 41.74 L54.41 41.66 L54.15 41.59 L53.88 41.52 L53.61 41.46 L53.34 41.42 L53.08 41.38 L52.81 41.35 L52.55 41.32 L52.28 41.31 L52.02 41.30 L51.76 41.30 L51.50 41.31 L51.24 41.32 L50.98 41.35 L50.73 41.38 L50.48 41.42 L50.23 41.46 L49.98 41.52 L49.74 41.58 L49.50 41.64 L49.27 41.72 L49.04 41.80 L48.81 41.88 L48.59 41.98 L48.37 42.07 L48.16 42.18 L47.95 42.29 L47.74 42.40 L47.54 42.53 L47.35 42.65 L47.16 42.78 L46.97 42.92 L46.80 43.06 L46.62 43.21 L46.45 43.35 L46.29 43.51 L46.14 43.66 L45.99 43.83 L45.84 43.99 L45.71 44.16 L45.57 44.33 L45.45 44.50 L45.33 44.67 L45.22 44.85 L45.11 45.03 L45.01 45.21 L44.92 45.39 L44.83 45.58 L44.75 45.76 L44.67 45.95 L44.60 46.14 L44.54 46.33 L44.49 46.51 L44.44 46.70 L44.39 46.89 L44.36 47.08 L44.32 47.27 L44.30 47.45 L44.28 47.64 L44.27 47.82 L44.26 48.01 L44.26 48.19 L44.26 48.37 L44.27 48.55 L44.29 48.73 L44.31 48.90 L44.33 49.08 L44.37 49.25 L44.40 49.42 L44.44 49.58 L44.49 49.74 L44.54 49.90 L44.60 50.06 L44.66 50.21 L44.72 50.36 L44.79 50.51 L44.86 50.65 L44.94 50.79 L45.02 50.92 L45.10 51.05 L45.19 51.18 L45.28 51.30 L45.37 51.42 L45.47 51.54 L45.56 51.65 L45.66 51.75 L45.77 51.85 L45.87 51.95 L45.98 52.04 L46.09 52.13 L46.20 52.21 L46.31 52.29 L46.43 52.37 L46.54 52.44 L46.66 52.50 L46.78 52.56 L46.90 52.62 L47.01 52.67 L47.13 52.71 L47.25 52.75 L47.37 52.79 L47.49 52.82 L47.61 52.85 L47.72 52.88 L47.84 52.90 L47.96 52.91 L48.07 52.92 L48.19 52.93 L48.30 52.93 L48.41 52.93 L48.52 52.92 L48.63 52.91 L48.74 52.90 L48.84 52.88 L48.94 52.86 L49.04 52.84 L49.14 52.81 L49.24 52.78 L49.33 52.75 L49.42 52.71 L49.51 52.67 L49.60 52.63 L49.68 52.58 L49.76 52.54 L49.83 52.49 L49.91 52.43 L49.98 52.38 L50.05 52.32 L50.11 52.27 L50.17 52.21 L50.23 52.14 L50.28 52.08 L50.33 52.02 L50.38 51.95 L50.42 51.89 L50.46 51.82 L50.50 51.75 L50.53 51.68 L50.56 51.61 L50.59 51.54 L50.61 51.47 L50.63 51.40 L50.65 51.34 L50.66 51.27 L50.67 51.20 L50.67 51.13 L50.68 51.06 L50.67 51.00 L50.67 50.93 L50.66 50.87 L50.65 50.81 L50.64 50.74 L50.62 50.68 L50.60 50.63 L50.58 50.57 L50.55 50.51 L50.53 50.46 L50.50 50.41 L50.46 50.36 L50.43 50.31 L50.39 50.27 L50.35 50.23 L50.31 50.19 L50.27 50.15 L50.22 50.12 L50.18 50.09 L50.13 50.06 L50.08 50.03 L50.03 50.01 L49.97 49.99 L49.92 49.97 L49.87 49.96 L49.81 49.95 L49.75 49.94 L49.70 49.94 L49.64 49.94 L49.58 49.94 L49.53 49.95 L49.47 49.95 L49.41 49.97 L49.36 49.98 L49.30 50.00 Z"/></svg>
