<svg xmlns="http://www.w3.org/2000/svg" viewBox="0 0 100 100"><path d="M50.50 50.00 L50.57 50.02 L50.63 50.05 L50.69 50.09 L50.75 50.13 L50.81 50.17 L50.87 50.22 L50.92 50.27 L50.97 50.33 L51.02 50.40 L51.06 50.47 L51.10 50.54 L51.14 50.61 L51.17 50.69 L51.19 50.78 L51.21 50.87 L51.23 50.96 L51.24 51.05 L51.24 51.14 L51.24 51.24 L51.23 51.34 L51.22 51.44 L51.20 51.54 L51.18 51.64 L51.14 51.74 L51.10 51.85 L51.06 51.95 L51.01 52.05 L50.95 52.15 L50.88 52.25 L50.81 52.35 L50.73 52.44 L50.65 52.53 L50.55 52.62 L50.46 52.71 L50.35 52.79 L50.24 52.87 L50.13 52.94 L50.01 53.01 L49.88 53.07 L49.75 53.13 L49.61 53.19 L49.47 53.23 L49.32 53.27 L49.17 53.30 L49.02 53.33 L48.86 53.35 L48.70 53.36 L48.53 53.37 L48.37 53.36 L48.20 53.35 L48.03 53.33 L47.86 53.30 L47.68 53.26 L47.51 53.22 L47.34 53.16 L47.16 53.10 L46.99 53.02 L46.82 52.94 L46.65 52.85 L46.48 52.75 L46.32 52.64 L46.16 52.53 L46.00 52.40 L45.85 52.26 L45.70 52.12 L45.55 51.97 L45.42 51.81 L45.28 51.64 L45.16 51.46 L45.04 51.27 L44.92 51.08 L44.82 50.88 L44.72 50.68 L44.63 50.46 L44.55 50.24 L44.48 50.02 L44.42 49.79 L44.36 49.55 L44.32 49.31 L44.29 49.07 L44.27 48.82 L44.26 48.57 L44.26 48.32 L44.27 48.06 L44.29 47.80 L44.33 47.54 L44.38 47.28 L44.43 47.02 L44.51 46.76 L44.59 46.50 L44.68 46.24 L44.79 45.98 L44.91 45.73 L45.04 45.48 L45.19 45.23 L45.34 44.99 L45.51 44.75 L45.69 44.52 L45.88 44.29 L46.08 44.07 L46.30 43.86 L46.52 43.65 L46.76 43.45 L47.01 43.26 L47.26 43.08 L47.53 42.92 L47.80 42.76 L48.09 42.61 L48.38 42.47 L48.68 42.34 L48.99 42.23 L49.31 42.13 L49.63 42.04 L49.96 41.97 L50.29 41.91 L50.63 41.86 L50.97 41.83 L51.32 41.81 L51.67 41.81 L52.02 41.82 L52.38 41.84 L52.73 41.89 L53.09 41.95 L53.45 42.02 L53.80 42.11 L54.15 42.21 L54.51 42.33 L54.85 42.47 L55.20 42.62 L55.54 42.79 L55.87 42.98 L56.20 43.18 L56.53 43.39 L56.84 43.62 L57.15 43.87 L57.45 44.13 L57.74 44.40 L58.02 44.69 L58.29 44.99 L58.54 45.30 L58.79 45.63 L59.02 45.97 L59.24 46.32 L59.45 46.68 L59.64 47.06 L59.82 47.44 L59.98 47.83 L60.13 48.24 L60.26 48.65 L60.37 49.07 L60.46 49.49 L60.54 49.92 L60.60 50.36 L60.64 50.80 L60.67 51.25 L60.67 51.70 L60.66 52.15 L60.62 52.61 L60.57 53.06 L60.50 53.52 L60.41 53.97 L60.29 54.42 L60.16 54.87 L60.01 55.32 L59.84 55.76 L59.65 56.20 L59.44 56.63 L59.21 57.05 L58.96 57.47 L58.70 57.88 L58.41 58.27 L58.11 58.66 L57.78 59.04 L57.45 59.41 L57.09 59.76 L56.72 60.10 L56.33 60.42 L55.93 60.73 L55.51 61.03 L55.07 61.31 L54.63 61.57 L54.17 61.81 L53.70 62.04 L53.21 62.24 L52.72 62.43 L52.22 62.60 L51.70 62.74 L51.18 62.87 L50.65 62.97 L50.12 63.05 L49.58 63.11 L49.03 63.15 L48.48 63.16 L47.93 63.16 L47.37 63.12 L46.82 63.07 L46.26 62.99 L45.71 62.89 L45.16 62.76 L44.61 62.61 L44.07 62.44 L43.53 62.24 L42.99 62.02 L42.47 61.78 L41.95 61.51 L41.44 61.22 L40.94 60.91 L40.46 60.57 L39.98 60.22 L39.52 59.84 L39.07 59.44 L38.64 59.02 L38.23 58.59 L37.83 58.13 L37.44 57.66 L37.08 57.16 L36.74 56.65 L36.41 56.13 L36.11 55.59 L35.83 55.03 L35.57 54.46 L35.34 53.88 L35.12 53.28 L34.94 52.68 L34.77 52.06 L34.64 51.44 L34.52 50.81 L34.44 50.17 L34.38 49.52 L34.34 48.87 L34.34 48.22 L34.36 47.57 L34.41 46.91 L34.49 46.25 L34.59 45.60 L34.72 44.94 L34.88 44.30 L35.07 43.65 L35.28 43.01 L35.53 42.38 L35.80 41.75 L36.09 41.14 L36.42 40.54 L36.77 39.94 L37.14 39.36 L37.54 38.80 L37.97 38.25 L38.42 37.71 L38.89 37.19 L39.39 36.69 L39.91 36.21 L40.45 35.76 L41.01 35.32 L41.59 34.90 L42.19 34.51 L42.81 34.14 L43.45 33.79 L44.10 33.47 L44.77 33.18 L45.45 32.92 L46.14 32.68 L46.85 32.47 L47.57 32.29 L48.30 32.14 L49.03 32.02 L49.77 31.93 L50.52 31.87 L51.27 31.84 L52.03 31.84 L52.79 31.87 L53.55 31.94 L54.30 32.04 L55.06 32.17 L55.81 32.33 L56.56 32.52 L57.30 32.75 L58.04 33.00 L58.76 33.29 L59.48 33.61 L60.18 33.96 L60.87 34.34 L61.55 34.75 L62.21 35.19 L62.86 35.65 L63.48 36.15 L64.09 36.67 L64.68 37.22 L65.25 37.80 L65.79 38.40 L66.31 39.02 L66.81 39.67 L67.28 40.34 L67.72 41.03 L68.13 41.74 L68.52 42.47 L68.88 43.22 L69.20 43.99 L69.50 44.77 L69.76 45.56 L69.99 46.37 L70.19 47.19 L70.36 48.02 L70.49 48.86 L70.58 49.70 L70.64 50.56 L70.67 51.41 L70.66 52.27 L70.61 53.13 L70.53 53.99 L70.41 54.85 L70.26 55.71 L70.07 56.56 L69.84 57.41 L69.58 58.25 L69.28 59.07 L68.95 59.89 L68.58 60.70 L68.18 61.49 L67.75 62.27 L67.28 63.03 L66.78 63.78 L66.24 64.50 L65.68 65.21 L65.08 65.89 L64.46 66.55 L63.80 67.18 L63.12 67.79 L62.41 68.37 L61.68 68.92 L60.92 69.45 L60.14 69.94 L59.33 70.40 L58.51 70.83 L57.66 71.23 L56.80 71.59 L55.92 71.91 L55.03 72.20 L54.12 72.46 L53.20 72.67 L52.26 72.85 L51.32 72.99 L50.37 73.09 L49.42 73.16 L48.46 73.18 L47.50 73.16 L46.53 73.10 L45.57 73.00 L44.61 72.87 L43.65 72.69 L42.70 72.47 L41.76 72.21 L40.82 71.91 L39.90 71.57 L38.98 71.20 L38.08 70.78 L37.20 70.33 L36.34 69.84 L35.49 69.31 L34.66 68.74 L33.86 68.14 L33.08 67.51 L32.32 66.84 L31.59 66.14 L30.89 65.41 L30.22 64.65 L29.57 63.86 L28.96 63.03 L28.39 62.19 L27.84 61.32 L27.33 60.42 L26.86 59.50 L26.43 58.56 L26.03 57.60 L25.67 56.62 L25.36 55.62 L25.08 54.61 L24.85 53.59 L24.65 52.56 L24.50 51.51 L24.40 50.46 L24.33 49.40 L24.31 48.34 L24.34 47.27 L24.41 46.21 L24.52 45.14 L24.68 44.08 L24.88 43.02 L25.13 41.97 L25.42 40.93 L25.75 39.89 L26.13 38.87 L26.55 37.87 L27.02 36.88 L27.52 35.90 L28.07 34.95 L28.66 34.02 L29.28 33.11 L29.95 32.23 L30.65 31.37 L31.39 30.54 L32.17 29.74 L32.98 28.96 L33.82 28.23 L34.70 27.52 L35.60 26.85 L36.54 26.22 L37.50 25.63 L38.49 25.07 L39.50 24.56 L40.54 24.08 L41.60 23.65 L42.67 23.26 L43.77 22.92 L44.88 22.62 L46.00 22.37 L47.14 22.16 L48.29 22.00 L49.44 21.89 L50.61 21.82 L51.77 21.81 L52.94 21.84 L54.11 21.92 L55.28 22.05 L56.44 22.22 L57.60 22.45 L58.75 22.72 L59.90 23.05 L61.03 23.42 L62.14 23.83 L63.24 24.30 L64.32 24.81 L65.39 25.37 L66.43 25.97 L67.44 26.61 L68.44 27.30 L69.40 28.03 L70.34 28.81 L71.24 29.62 L72.11 30.47 L72.95 31.36 L73.76 32.28 L74.52 33.24 L75.25 34.23 L75.94 35.25 L76.58 36.31 L77.18 37.39 L77.74 38.49 L78.26 39.63 L78.72 40.78 L79.14 41.96 L79.51 43.15 L79.84 44.36 L80.11 45.59 L80.33 46.83 L80.50 48.08 L80.62 49.34 L80.69 50.61 L80.70 51.88 L80.67 53.15 L80.57 54.42 L80.43 55.69 L80.23 56.96 L79.99 58.22 L79.68 59.47 L79.33 60.71 L78.92 61.93 L78.47 63.15 L77.96 64.34 L77.40 65.51 L76.79 66.67 L76.14 67.80 L75.43 68.90 L74.68 69.97 L73.89 71.02 L73.05 72.03 L72.16 73.01 L71.24 73.96 L70.27 74.87 L69.27 75.73 L68.23 76.56 L67.15 77.35 L66.04 78.09 L64.90 78.79 L63.72 79.44 L62.52 80.04 L61.29 80.59 L60.04 81.10 L58.77 81.55 L57.47 81.95 L56.16 82.29 L54.83 82.58 L53.49 82.82 L52.14 83.00 L50.77 83.13 L49.40 83.20 L48.03 83.21 L46.65 83.17 L45.28 83.07 L43.91 82.91 L42.54 82.69 L41.18 82.42 L39.83 82.09 L38.49 81.71 L37.16 81.27 L35.86 80.77 L34.57 80.22 L33.30 79.61 L32.06 78.96 L30.84 78.25 L29.65 77.48 L28.49 76.67 L27.37 75.81 L26.28 74.90 L25.22 73.95 L24.20 72.95 L23.23 71.91 L22.29 70.82 L21.40 69.70 L20.56 68.54 L19.76 67.34 L19.01 66.11 L18.31 64.84 L17.67 63.55 L17.07 62.22 L16.53 60.87 L16.05 59.50 L15.62 58.11 L15.25 56.69 L14.94 55.26 L14.69 53.82 L14.49 52.36 L14.36 50.90 L14.29 49.42 L14.28 47.95 L14.33 46.47 L14.44 44.99 L14.61 43.51 L14.84 42.04 L15.14 40.58 L15.49 39.13 L15.91 37.69 L16.39 36.27 L16.92 34.87 L17.51 33.48 L18.17 32.13 L18.87 30.79 L19.64 29.49 L20.46 28.21 L21.33 26.97 L22.26 25.76 L23.23 24.59 L24.26 23.46 L25.33 22.37 L26.45 21.33 L27.62 20.33 L28.82 19.37 L30.07 18.47 L31.35 17.62 L32.68 16.82 L34.03 16.07 L35.42 15.38 L36.84 14.74 L38.29 14.17 L39.76 13.65 L41.25 13.20 L42.77 12.80 L44.30 12.47 L45.84 12.20 L47.40 11.99 L48.97 11.85 L50.55 11.78 L52.13 11.77 L53.71 11.82 L55.29 11.94 L56.87 12.13 L58.44 12.38 L60.01 12.70 L61.56 13.08 L63.10 13.52 L64.61 14.03 L66.11 14.61 L67.59 15.24 L69.04 15.94 L70.47 16.70 L71.86 17.52 L73.22 18.40 L74.55 19.33 L75.84 20.32 L77.09 21.36 L78.29 22.46 L79.45 23.61 L80.57 24.80 L81.64 26.05 L82.65 27.34 L83.61 28.67 L84.52 30.04 L85.38 31.45 L86.17 32.90 L86.91 34.38 L87.58 35.89 L88.20 37.44 L88.75 39.01 L89.23 40.60 L89.65 42.21 L90.00 43.85 L90.29 45.50 L90.51 47.16 L90.65 48.83 L90.73 50.51 L90.74 52.20 L90.68 53.88 L90.56 55.57 L90.36 57.25 L90.09 58.92 L89.75 60.59 L89.34 62.24 L88.86 63.87 L88.32 65.49 L87.71 67.09 L87.03 68.66 L86.29 70.20 L85.48 71.72 L84.60 73.20 L83.67 74.65 L82.68 76.06 L81.62 77.43 L80.51 78.76 L79.34 80.04 L78.12 81.27 L76.85 82.46 L75.53 83.59 L74.16 84.67 L72.74 85.69 L71.28 86.66 L69.78 87.57 L68.24 88.41 L66.67 89.19 L65.06 89.91 L63.42 90.56 L61.75 91.14 L60.06 91.65 L58.34 92.10 L56.61 92.47 L54.86 92.77 L53.09 93.00 L51.32 93.16 L49.53 93.25 L47.75 93.26 L45.96 93.19 L44.17 93.05 L42.38 92.84 L40.61 92.55 L38.84 92.19 L37.09 91.76 L35.36 91.25 L33.64 90.68 L31.95 90.03 L30.28 89.31 L28.64 88.52 L27.04 87.66 L25.47 86.73 L23.93 85.74 L22.44 84.69 L20.99 83.57 L19.58 82.39 L18.22 81.16 L16.91 79.86 L15.66 78.51 L14.46 77.11 L13.32 75.66 L12.23 74.16 L11.21 72.61 L10.25 71.02 L9.36 69.39 L8.53 67.72 L7.77 66.02 L7.08 64.29 L6.47 62.52 L5.92 60.73 L5.45 58.91 L5.06 57.08 L4.74 55.22 L4.50 53.36 L4.33 51.48 L4.24 49.59 L4.23 47.70 L4.30 45.80 L4.45 43.91 L4.67 42.03 L4.98 40.15 L5.36 38.28 L5.82 36.43 L6.35 34.59 L6.96 32.78 L7.65 30.99 L8.41 29.23 L9.25 27.50 L10.15 25.80 L11.13 24.14 L12.18 22.52 A2.75 2.75 0 0 1 16.63 25.75 L15.71 27.19 L14.84 28.65 L14.04 30.15 L13.31 31.68 L12.64 33.23 L12.03 34.81 L11.50 36.41 L11.02 38.03 L10.62 39.66 L10.29 41.31 L10.02 42.97 L9.82 44.63 L9.69 46.30 L9.64 47.97 L9.65 49.64 L9.73 51.30 L9.87 52.96 L10.09 54.61 L10.37 56.24 L10.72 57.86 L11.14 59.46 L11.62 61.04 L12.16 62.60 L12.77 64.13 L13.44 65.63 L14.17 67.10 L14.96 68.53 L15.81 69.93 L16.71 71.30 L17.66 72.62 L18.67 73.90 L19.73 75.13 L20.84 76.32 L21.99 77.46 L23.19 78.55 L24.43 79.59 L25.71 80.57 L27.03 81.50 L28.38 82.37 L29.77 83.18 L31.18 83.94 L32.63 84.63 L34.10 85.27 L35.59 85.84 L37.10 86.34 L38.63 86.79 L40.17 87.17 L41.73 87.49 L43.29 87.74 L44.86 87.92 L46.44 88.04 L48.01 88.10 L49.59 88.09 L51.16 88.01 L52.72 87.87 L54.28 87.67 L55.82 87.40 L57.35 87.07 L58.86 86.68 L60.35 86.22 L61.82 85.71 L63.26 85.13 L64.67 84.50 L66.06 83.81 L67.41 83.07 L68.73 82.27 L70.02 81.42 L71.26 80.52 L72.47 79.57 L73.63 78.57 L74.75 77.52 L75.82 76.43 L76.85 75.31 L77.83 74.14 L78.75 72.93 L79.63 71.69 L80.45 70.41 L81.21 69.11 L81.92 67.77 L82.58 66.41 L83.17 65.03 L83.71 63.63 L84.19 62.20 L84.60 60.76 L84.96 59.31 L85.26 57.85 L85.49 56.38 L85.67 54.90 L85.78 53.41 L85.83 51.93 L85.82 50.45 L85.75 48.97 L85.62 47.50 L85.42 46.04 L85.17 44.59 L84.86 43.16 L84.49 41.74 L84.06 40.34 L83.58 38.96 L83.04 37.60 L82.44 36.27 L81.79 34.97 L81.09 33.70 L80.34 32.46 L79.54 31.25 L78.69 30.08 L77.80 28.95 L76.86 27.86 L75.88 26.81 L74.86 25.80 L73.80 24.84 L72.70 23.93 L71.57 23.06 L70.40 22.24 L69.20 21.47 L67.98 20.75 L66.73 20.09 L65.45 19.48 L64.15 18.92 L62.83 18.42 L61.50 17.97 L60.15 17.58 L58.79 17.24 L57.41 16.97 L56.03 16.75 L54.65 16.59 L53.26 16.48 L51.87 16.44 L50.48 16.45 L49.10 16.52 L47.72 16.64 L46.35 16.82 L44.99 17.06 L43.65 17.35 L42.32 17.70 L41.01 18.10 L39.72 18.56 L38.45 19.07 L37.21 19.62 L35.99 20.23 L34.80 20.89 L33.64 21.59 L32.52 22.34 L31.42 23.14 L30.37 23.97 L29.35 24.85 L28.37 25.77 L27.43 26.73 L26.53 27.72 L25.67 28.75 L24.86 29.81 L24.10 30.90 L23.38 32.01 L22.71 33.16 L22.09 34.33 L21.52 35.52 L21.00 36.74 L20.54 37.97 L20.12 39.21 L19.76 40.47 L19.45 41.75 L19.19 43.03 L18.99 44.31 L18.84 45.61 L18.74 46.90 L18.70 48.20 L18.71 49.49 L18.78 50.78 L18.90 52.07 L19.07 53.34 L19.29 54.61 L19.57 55.86 L19.89 57.10 L20.27 58.32 L20.70 59.52 L21.17 60.70 L21.69 61.86 L22.26 62.99 L22.87 64.10 L23.53 65.18 L24.23 66.23 L24.97 67.24 L25.75 68.22 L26.57 69.17 L27.42 70.08 L28.32 70.96 L29.24 71.79 L30.20 72.58 L31.18 73.34 L32.20 74.05 L33.24 74.71 L34.31 75.33 L35.39 75.90 L36.50 76.43 L37.63 76.91 L38.77 77.35 L39.93 77.73 L41.10 78.06 L42.29 78.35 L43.48 78.59 L44.67 78.77 L45.87 78.91 L47.08 79.00 L48.28 79.03 L49.48 79.02 L50.68 78.96 L51.87 78.84 L53.05 78.68 L54.22 78.47 L55.38 78.22 L56.53 77.91 L57.66 77.56 L58.77 77.16 L59.87 76.72 L60.94 76.24 L61.99 75.71 L63.01 75.14 L64.01 74.53 L64.98 73.88 L65.91 73.19 L66.82 72.47 L67.70 71.71 L68.54 70.92 L69.35 70.09 L70.12 69.23 L70.85 68.35 L71.54 67.43 L72.19 66.49 L72.81 65.53 L73.38 64.54 L73.91 63.54 L74.39 62.51 L74.83 61.47 L75.23 60.41 L75.58 59.34 L75.89 58.26 L76.15 57.17 L76.37 56.07 L76.54 54.96 L76.66 53.86 L76.74 52.75 L76.77 51.64 L76.75 50.53 L76.69 49.42 L76.58 48.33 L76.43 47.24 L76.24 46.16 L76.00 45.09 L75.72 44.03 L75.39 42.99 L75.02 41.97 L74.61 40.96 L74.16 39.98 L73.68 39.01 L73.15 38.07 L72.59 37.16 L71.99 36.27 L71.35 35.41 L70.68 34.57 L69.98 33.77 L69.25 33.00 L68.49 32.26 L67.70 31.55 L66.88 30.88 L66.04 30.25 L65.18 29.65 L64.29 29.09 L63.38 28.57 L62.46 28.09 L61.52 27.65 L60.56 27.24 L59.59 26.88 L58.60 26.56 L57.61 26.28 L56.61 26.05 L55.60 25.85 L54.59 25.70 L53.57 25.59 L52.56 25.52 L51.54 25.50 L50.53 25.52 L49.52 25.57 L48.51 25.67 L47.52 25.82 L46.53 26.00 L45.55 26.22 L44.59 26.48 L43.64 26.78 L42.70 27.12 L41.78 27.50 L40.89 27.91 L40.01 28.36 L39.15 28.85 L38.31 29.36 L37.50 29.91 L36.72 30.50 L35.96 31.11 L35.23 31.75 L34.53 32.42 L33.86 33.12 L33.22 33.84 L32.61 34.59 L32.04 35.35 L31.49 36.14 L30.99 36.95 L30.51 37.78 L30.08 38.63 L29.68 39.48 L29.32 40.36 L28.99 41.24 L28.70 42.14 L28.45 43.04 L28.24 43.95 L28.07 44.87 L27.94 45.79 L27.84 46.71 L27.78 47.64 L27.76 48.56 L27.78 49.48 L27.84 50.40 L27.93 51.31 L28.07 52.21 L28.24 53.11 L28.44 53.99 L28.68 54.87 L28.96 55.73 L29.27 56.57 L29.61 57.40 L29.99 58.21 L30.40 59.01 L30.84 59.78 L31.32 60.53 L31.82 61.27 L32.35 61.97 L32.91 62.66 L33.49 63.31 L34.10 63.94 L34.73 64.55 L35.38 65.12 L36.06 65.67 L36.76 66.18 L37.47 66.67 L38.21 67.12 L38.95 67.55 L39.72 67.93 L40.49 68.29 L41.28 68.61 L42.08 68.90 L42.89 69.16 L43.70 69.38 L44.53 69.56 L45.35 69.71 L46.18 69.83 L47.01 69.91 L47.84 69.96 L48.67 69.97 L49.50 69.95 L50.32 69.90 L51.14 69.81 L51.95 69.68 L52.75 69.53 L53.55 69.34 L54.33 69.12 L55.10 68.86 L55.85 68.58 L56.59 68.27 L57.32 67.92 L58.03 67.55 L58.72 67.15 L59.39 66.73 L60.04 66.27 L60.67 65.80 L61.28 65.29 L61.86 64.77 L62.42 64.22 L62.96 63.65 L63.47 63.06 L63.95 62.46 L64.41 61.83 L64.84 61.19 L65.24 60.54 L65.61 59.87 L65.95 59.18 L66.26 58.49 L66.55 57.79 L66.80 57.07 L67.02 56.35 L67.21 55.63 L67.37 54.90 L67.50 54.16 L67.60 53.42 L67.67 52.68 L67.70 51.95 L67.71 51.21 L67.68 50.48 L67.63 49.75 L67.54 49.02 L67.43 48.31 L67.29 47.60 L67.11 46.89 L66.91 46.20 L66.68 45.52 L66.43 44.86 L66.15 44.20 L65.84 43.56 L65.50 42.94 L65.15 42.33 L64.76 41.74 L64.36 41.17 L63.93 40.62 L63.49 40.09 L63.02 39.58 L62.53 39.09 L62.03 38.62 L61.51 38.18 L60.97 37.76 L60.42 37.36 L59.85 36.99 L59.27 36.64 L58.68 36.32 L58.08 36.03 L57.47 35.76 L56.85 35.52 L56.22 35.30 L55.59 35.11 L54.95 34.95 L54.31 34.82 L53.66 34.71 L53.02 34.63 L52.37 34.58 L51.73 34.55 L51.08 34.55 L50.44 34.58 L49.81 34.64 L49.18 34.72 L48.55 34.82 L47.93 34.96 L47.33 35.11 L46.73 35.29 L46.14 35.50 L45.56 35.73 L44.99 35.98 L44.44 36.25 L43.90 36.55 L43.38 36.86 L42.87 37.20 L42.38 37.56 L41.91 37.93 L41.45 38.32 L41.02 38.73 L40.60 39.16 L40.20 39.60 L39.82 40.05 L39.46 40.52 L39.13 41.00 L38.81 41.50 L38.52 42.00 L38.25 42.51 L38.00 43.03 L37.78 43.56 L37.58 44.10 L37.40 44.64 L37.24 45.19 L37.11 45.74 L37.00 46.29 L36.92 46.84 L36.86 47.40 L36.82 47.95 L36.81 48.50 L36.82 49.05 L36.85 49.60 L36.90 50.14 L36.98 50.68 L37.08 51.21 L37.20 51.73 L37.34 52.25 L37.50 52.76 L37.68 53.26 L37.88 53.75 L38.11 54.22 L38.35 54.69 L38.60 55.14 L38.88 55.58 L39.17 56.00 L39.48 56.42 L39.80 56.81 L40.14 57.19 L40.49 57.55 L40.86 57.90 L41.23 58.23 L41.62 58.54 L42.02 58.84 L42.43 59.11 L42.85 59.37 L43.28 59.61 L43.71 59.83 L44.15 60.03 L44.60 60.21 L45.05 60.37 L45.51 60.51 L45.97 60.63 L46.43 60.73 L46.89 60.81 L47.35 60.87 L47.82 60.91 L48.28 60.94 L48.74 60.94 L49.19 60.92 L49.65 60.89 L50.10 60.83 L50.54 60.76 L50.98 60.67 L51.41 60.56 L51.84 60.43 L52.25 60.29 L52.66 60.13 L53.06 59.96 L53.45 59.76 L53.82 59.56 L54.19 59.34 L54.55 59.10 L54.89 58.86 L55.22 58.60 L55.54 58.32 L55.84 58.04 L56.13 57.74 L56.41 57.44 L56.67 57.13 L56.91 56.80 L57.14 56.47 L57.36 56.13 L57.56 55.79 L57.74 55.44 L57.91 55.08 L58.06 54.72 L58.20 54.35 L58.32 53.99 L58.42 53.62 L58.50 53.24 L58.57 52.87 L58.63 52.50 L58.67 52.13 L58.69 51.75 L58.69 51.39 L58.69 51.02 L58.66 50.65 L58.62 50.29 L58.57 49.94 L58.50 49.59 L58.41 49.24 L58.31 48.90 L58.20 48.57 L58.08 48.25 L57.94 47.93 L57.79 47.62 L57.63 47.32 L57.46 47.03 L57.28 46.75 L57.08 46.48 L56.88 46.22 L56.67 45.97 L56.44 45.73 L56.21 45.50 L55.98 45.29 L55.73 45.08 L55.48 44.89 L55.22 44.71 L54.96 44.54 L54.69 44.39 L54.42 44.25 L54.14 44.12 L53.87 44.00 L53.58 43.90 L53.30 43.81 L53.02 43.73 L52.73 43.67 L52.45 43.62 L52.16 43.58 L51.88 43.55 L51.60 43.54 L51.32 43.54 L51.04 43.55 L50.77 43.57 L50.49 43.60 L50.23 43.65 L49.97 43.70 L49.71 43.77 L49.46 43.84 L49.21 43.93 L48.97 44.03 L48.74 44.13 L48.51 44.25 L48.29 44.37 L48.08 44.50 L47.88 44.64 L47.68 44.79 L47.50 44.94 L47.32 45.10 L47.15 45.27 L46.99 45.44 L46.84 45.62 L46.70 45.80 L46.57 45.98 L46.44 46.17 L46.33 46.36 L46.23 46.56 L46.13 46.76 L46.05 46.95 L45.98 47.15 L45.91 47.35 L45.86 47.56 L45.81 47.76 L45.78 47.96 L45.75 48.16 L45.74 48.36 L45.73 48.55 L45.73 48.75 L45.74 48.94 L45.76 49.13 L45.78 49.31 L45.82 49.49 L45.86 49.67 L45.91 49.85 L45.97 50.01 L46.03 50.18 L46.10 50.34 L46.18 50.49 L46.26 50.64 L46.35 50.78 L46.44 50.91 L46.54 51.04 L46.64 51.17 L46.75 51.28 L46.86 51.39 L46.97 51.49 L47.09 51.59 L47.21 51.68 L47.33 51.76 L47.45 51.83 L47.58 51.90 L47.70 51.96 L47.83 52.01 L47.96 52.06 L48.08 52.09 L48.21 52.13 L48.33 52.15 L48.46 52.17 L48.58 52.18 L48.70 52.19 L48.82 52.19 L48.94 52.18 L49.06 52.17 L49.17 52.15 L49.28 52.12 L49.38 52.09 L49.48 52.06 L49.58 52.02 L49.67 51.98 L49.76 51.93 L49.85 51.88 L49.93 51.82 L50.00 51.77 L50.07 51.71 L50.14 51.64 L50.20 51.57 L50.25 51.51 L50.30 51.44 L50.35 51.36 L50.39 51.29 L50.42 51.22 L50.45 51.14 L50.47 51.07 L50.49 51.00 L50.50 50.92 L50.51 50.85 L50.51 50.78 L50.51 50.71 L50.50 50.64 L50.49 50.57 L50.47 50.51 L50.45 50.45 L50.42 50.39 L50.39 50.33 L50.36 50.28 L50.32 50.23 L50.28 50.18 L50.24 50.14 L50.19 50.10 L50.14 50.07 L50.09 50.04 L50.03 50.01 L49.98 49.99 L49.92 49.98 L49.86 49.97 L49.80 49.96 L49.74 49.96 L49.68 49.96 L49.62 49.97 L49.56 49.98 L49.50 50.00 Z" fill="#111111"/></svg>
