<svg xmlns="http://www.w3.org/2000/svg" viewBox="0 0 100 100"><path d="M50.00 50.00 L50.06 50.00 L50.12 50.01 L50.18 50.01 L50.24 50.02 L50.30 50.03 L50.36 50.05 L50.41 50.07 L50.47 50.09 L50.53 50.11 L50.58 50.14 L50.64 50.17 L50.69 50.20 L50.74 50.23 L50.80 50.27 L50.85 50.31 L50.89 50.35 L50.94 50.39 L50.99 50.44 L51.03 50.49 L51.07 50.54 L51.11 50.59 L51.15 50.65 L51.19 50.71 L51.22 50.77 L51.25 50.83 L51.28 50.89 L51.31 50.95 L51.33 51.02 L51.36 51.09 L51.38 51.16 L51.39 51.23 L51.41 51.30 L51.42 51.38 L51.43 51.45 L51.44 51.53 L51.44 51.61 L51.44 51.69 L51.44 51.77 L51.44 51.85 L51.43 51.93 L51.42 52.01 L51.40 52.09 L51.39 52.18 L51.37 52.26 L51.34 52.34 L51.32 52.43 L51.29 52.51 L51.25 52.59 L51.22 52.68 L51.18 52.76 L51.14 52.84 L51.09 52.92 L51.04 53.00 L50.99 53.08 L50.93 53.16 L50.88 53.24 L50.81 53.32 L50.75 53.40 L50.68 53.47 L50.61 53.55 L50.54 53.62 L50.46 53.69 L50.38 53.76 L50.30 53.83 L50.21 53.89 L50.12 53.96 L50.03 54.02 L49.93 54.08 L49.84 54.14 L49.74 54.19 L49.63 54.24 L49.53 54.29 L49.42 54.34 L49.31 54.39 L49.20 54.43 L49.08 54.47 L48.96 54.50 L48.84 54.54 L48.72 54.56 L48.60 54.59 L48.47 54.61 L48.35 54.63 L48.22 54.65 L48.09 54.66 L47.95 54.67 L47.82 54.68 L47.68 54.68 L47.55 54.68 L47.41 54.67 L47.27 54.66 L47.13 54.65 L46.99 54.63 L46.85 54.61 L46.71 54.58 L46.57 54.55 L46.42 54.52 L46.28 54.48 L46.14 54.43 L46.00 54.39 L45.85 54.34 L45.71 54.28 L45.57 54.22 L45.43 54.16 L45.29 54.09 L45.15 54.02 L45.01 53.94 L44.87 53.86 L44.73 53.77 L44.59 53.68 L44.46 53.59 L44.33 53.49 L44.19 53.38 L44.06 53.28 L43.94 53.17 L43.81 53.05 L43.69 52.93 L43.56 52.81 L43.45 52.68 L43.33 52.54 L43.21 52.41 L43.10 52.27 L42.99 52.12 L42.89 51.98 L42.79 51.82 L42.69 51.67 L42.59 51.51 L42.50 51.35 L42.41 51.18 L42.33 51.01 L42.25 50.84 L42.17 50.66 L42.09 50.48 L42.03 50.30 L41.96 50.12 L41.90 49.93 L41.84 49.74 L41.79 49.54 L41.75 49.35 L41.70 49.15 L41.67 48.95 L41.63 48.74 L41.61 48.54 L41.58 48.33 L41.57 48.12 L41.55 47.91 L41.55 47.70 L41.55 47.49 L41.55 47.27 L41.56 47.05 L41.57 46.84 L41.59 46.62 L41.62 46.40 L41.65 46.18 L41.69 45.96 L41.73 45.74 L41.78 45.52 L41.84 45.30 L41.90 45.08 L41.96 44.86 L42.04 44.64 L42.11 44.42 L42.20 44.20 L42.29 43.98 L42.38 43.77 L42.49 43.55 L42.59 43.34 L42.71 43.13 L42.83 42.92 L42.95 42.71 L43.08 42.50 L43.22 42.30 L43.36 42.10 L43.51 41.90 L43.67 41.70 L43.83 41.51 L43.99 41.31 L44.17 41.13 L44.34 40.94 L44.52 40.76 L44.71 40.58 L44.91 40.41 L45.10 40.24 L45.31 40.07 L45.52 39.91 L45.73 39.75 L45.95 39.60 L46.17 39.45 L46.40 39.31 L46.63 39.17 L46.87 39.04 L47.11 38.91 L47.36 38.79 L47.61 38.67 L47.86 38.56 L48.12 38.45 L48.38 38.35 L48.64 38.26 L48.91 38.17 L49.19 38.09 L49.46 38.01 L49.74 37.94 L50.02 37.88 L50.31 37.82 L50.59 37.77 L50.88 37.73 L51.17 37.70 L51.47 37.67 L51.76 37.65 L52.06 37.63 L52.36 37.62 L52.66 37.62 L52.96 37.63 L53.27 37.64 L53.57 37.67 L53.88 37.70 L54.18 37.73 L54.49 37.78 L54.79 37.83 L55.10 37.89 L55.40 37.96 L55.71 38.03 L56.02 38.12 L56.32 38.21 L56.62 38.30 L56.92 38.41 L57.22 38.52 L57.52 38.65 L57.82 38.78 L58.12 38.91 L58.41 39.06 L58.70 39.21 L58.99 39.37 L59.27 39.54 L59.56 39.71 L59.84 39.90 L60.11 40.09 L60.38 40.28 L60.65 40.49 L60.92 40.70 L61.18 40.92 L61.43 41.15 L61.69 41.38 L61.93 41.62 L62.17 41.87 L62.41 42.12 L62.64 42.38 L62.87 42.65 L63.09 42.93 L63.31 43.21 L63.51 43.49 L63.72 43.78 L63.91 44.08 L64.10 44.39 L64.29 44.70 L64.46 45.01 L64.63 45.33 L64.80 45.66 L64.95 45.99 L65.10 46.32 L65.24 46.67 L65.37 47.01 L65.50 47.36 L65.61 47.71 L65.72 48.07 L65.82 48.43 L65.91 48.80 L66.00 49.17 L66.07 49.54 L66.14 49.91 L66.20 50.29 L66.25 50.67 L66.29 51.05 L66.32 51.44 L66.34 51.83 L66.35 52.21 L66.35 52.61 L66.35 53.00 L66.33 53.39 L66.31 53.78 L66.27 54.18 L66.23 54.57 L66.17 54.97 L66.11 55.36 L66.04 55.76 L65.96 56.15 L65.86 56.55 L65.76 56.94 L65.65 57.33 L65.53 57.72 L65.40 58.11 L65.25 58.49 L65.10 58.88 L64.94 59.26 L64.77 59.64 L64.59 60.01 L64.41 60.39 L64.21 60.76 L64.00 61.12 L63.78 61.48 L63.56 61.84 L63.32 62.20 L63.07 62.55 L62.82 62.89 L62.56 63.23 L62.29 63.56 L62.01 63.89 L61.72 64.21 L61.42 64.53 L61.11 64.84 L60.80 65.15 L60.47 65.44 L60.14 65.73 L59.81 66.02 L59.46 66.29 L59.11 66.56 L58.74 66.82 L58.38 67.08 L58.00 67.32 L57.62 67.56 L57.23 67.79 L56.83 68.01 L56.43 68.22 L56.02 68.42 L55.61 68.61 L55.19 68.80 L54.76 68.97 L54.33 69.14 L53.90 69.29 L53.45 69.44 L53.01 69.57 L52.56 69.69 L52.11 69.81 L51.65 69.91 L51.19 70.00 L50.72 70.09 L50.25 70.16 L49.78 70.22 L49.31 70.27 L48.83 70.31 L48.35 70.33 L47.87 70.35 L47.39 70.35 L46.91 70.35 L46.42 70.33 L45.94 70.30 L45.45 70.26 L44.97 70.20 L44.48 70.14 L44.00 70.06 L43.51 69.97 L43.03 69.87 L42.54 69.76 L42.06 69.64 L41.58 69.50 L41.10 69.35 L40.63 69.19 L40.16 69.02 L39.69 68.84 L39.22 68.65 L38.76 68.44 L38.30 68.23 L37.84 68.00 L37.39 67.76 L36.94 67.51 L36.50 67.24 L36.06 66.97 L35.63 66.69 L35.21 66.39 L34.79 66.08 L34.37 65.77 L33.97 65.44 L33.57 65.10 L33.17 64.75 L32.79 64.40 L32.41 64.03 L32.04 63.65 L31.68 63.26 L31.32 62.87 L30.98 62.46 L30.64 62.04 L30.31 61.62 L29.99 61.19 L29.69 60.74 L29.39 60.29 L29.10 59.84 L28.82 59.37 L28.55 58.90 L28.29 58.41 L28.05 57.93 L27.81 57.43 L27.59 56.93 L27.37 56.42 L27.17 55.91 L26.98 55.38 L26.80 54.86 L26.64 54.33 L26.48 53.79 L26.34 53.25 L26.21 52.70 L26.10 52.15 L25.99 51.60 L25.90 51.04 L25.82 50.48 L25.76 49.91 L25.71 49.35 L25.67 48.78 L25.65 48.20 L25.63 47.63 L25.64 47.06 L25.65 46.48 L25.68 45.90 L25.73 45.32 L25.78 44.75 L25.85 44.17 L25.94 43.59 L26.04 43.01 L26.15 42.44 L26.28 41.87 L26.42 41.29 L26.57 40.72 L26.74 40.16 L26.92 39.59 L27.11 39.03 L27.32 38.47 L27.54 37.92 L27.78 37.37 L28.03 36.82 L28.29 36.28 L28.57 35.74 L28.86 35.21 L29.16 34.69 L29.48 34.17 L29.80 33.66 L30.15 33.15 L30.50 32.65 L30.87 32.16 L31.24 31.68 L31.64 31.20 L32.04 30.73 L32.45 30.28 L32.88 29.83 L33.32 29.39 L33.77 28.95 L34.23 28.53 L34.70 28.12 L35.18 27.72 L35.67 27.33 L36.17 26.95 L36.68 26.58 L37.21 26.22 L37.74 25.88 L38.28 25.54 L38.83 25.22 L39.38 24.91 L39.95 24.62 L40.52 24.33 L41.11 24.06 L41.70 23.80 L42.29 23.56 L42.90 23.33 L43.51 23.11 L44.12 22.91 L44.75 22.72 L45.37 22.55 L46.01 22.39 L46.65 22.24 L47.29 22.11 L47.94 22.00 L48.59 21.90 L49.24 21.81 L49.90 21.74 L50.56 21.69 L51.22 21.65 L51.89 21.62 L52.55 21.61 L53.22 21.62 L53.89 21.65 L54.56 21.69 L55.23 21.74 L55.90 21.81 L56.57 21.90 L57.24 22.00 L57.91 22.12 L58.58 22.26 L59.24 22.41 L59.90 22.57 L60.56 22.76 L61.22 22.95 L61.87 23.17 L62.52 23.40 L63.16 23.64 L63.80 23.91 L64.44 24.18 L65.07 24.47 L65.69 24.78 L66.31 25.10 L66.92 25.44 L67.52 25.80 L68.12 26.16 L68.70 26.55 L69.29 26.94 L69.86 27.35 L70.42 27.78 L70.98 28.22 L71.52 28.67 L72.06 29.14 L72.58 29.62 L73.10 30.11 L73.60 30.62 L74.09 31.14 L74.58 31.67 L75.05 32.21 L75.50 32.77 L75.95 33.34 L76.38 33.91 L76.80 34.50 L77.21 35.10 L77.60 35.72 L77.98 36.34 L78.35 36.97 L78.70 37.61 L79.04 38.26 L79.36 38.92 L79.67 39.59 L79.96 40.27 L80.23 40.95 L80.50 41.64 L80.74 42.34 L80.97 43.05 L81.18 43.76 L81.38 44.48 L81.56 45.20 L81.72 45.93 L81.87 46.67 L82.00 47.41 L82.11 48.15 L82.20 48.90 L82.28 49.65 L82.34 50.41 L82.38 51.16 L82.40 51.92 L82.41 52.68 L82.40 53.44 L82.37 54.21 L82.32 54.97 L82.25 55.73 L82.17 56.50 L82.07 57.26 L81.95 58.02 L81.81 58.78 L81.65 59.54 L81.48 60.29 L81.29 61.04 L81.08 61.79 L80.85 62.54 L80.60 63.28 L80.34 64.01 L80.06 64.74 L79.76 65.47 L79.44 66.19 L79.11 66.90 L78.76 67.61 L78.39 68.30 L78.01 69.00 L77.60 69.68 L77.18 70.35 L76.75 71.02 L76.30 71.68 L75.83 72.32 L75.35 72.96 L74.85 73.59 L74.33 74.20 L73.80 74.81 L73.26 75.40 L72.70 75.98 L72.12 76.55 L71.54 77.11 L70.93 77.65 L70.32 78.18 L69.69 78.69 L69.05 79.20 L68.39 79.68 L67.73 80.16 L67.05 80.61 L66.35 81.06 L65.65 81.48 L64.94 81.89 L64.21 82.29 L63.48 82.67 L62.74 83.03 L61.98 83.37 L61.22 83.70 L60.45 84.01 L59.67 84.30 L58.88 84.58 L58.08 84.83 L57.28 85.07 L56.47 85.29 L55.65 85.49 L54.83 85.67 L54.01 85.84 L53.17 85.98 L52.34 86.10 L51.50 86.21 L50.65 86.29 L49.80 86.36 L48.95 86.40 L48.10 86.43 L47.25 86.44 L46.39 86.42 L45.54 86.39 L44.68 86.33 L43.82 86.26 L42.97 86.16 L42.11 86.05 L41.26 85.91 L40.41 85.76 L39.56 85.58 L38.71 85.38 L37.87 85.17 L37.03 84.93 L36.20 84.67 L35.37 84.40 L34.55 84.10 L33.73 83.79 L32.92 83.45 L32.11 83.10 L31.32 82.72 L30.53 82.33 L29.75 81.92 L28.97 81.48 L28.21 81.03 L27.46 80.57 L26.71 80.08 L25.98 79.57 L25.26 79.05 L24.55 78.51 L23.85 77.95 L23.16 77.38 L22.48 76.78 L21.82 76.18 L21.17 75.55 L20.54 74.91 L19.92 74.25 L19.31 73.58 L18.72 72.89 L18.15 72.19 L17.59 71.48 L17.05 70.75 L16.52 70.00 L16.01 69.25 L15.52 68.48 L15.04 67.69 L14.59 66.90 L14.15 66.09 L13.72 65.27 L13.32 64.45 L12.94 63.61 L12.57 62.76 L12.23 61.90 L11.90 61.03 L11.60 60.15 L11.31 59.27 L11.05 58.38 L10.81 57.48 L10.58 56.57 L10.38 55.66 L10.20 54.74 L10.04 53.81 L9.90 52.88 L9.79 51.95 L9.69 51.01 L9.62 50.07 L9.57 49.13 L9.54 48.18 L9.53 47.24 L9.55 46.29 L9.59 45.34 L9.65 44.39 L9.73 43.44 L9.84 42.49 L9.96 41.54 L10.11 40.59 L10.29 39.65 L10.48 38.71 L10.70 37.77 L10.94 36.84 L11.20 35.91 L11.48 34.99 L11.79 34.07 L12.11 33.16 L12.46 32.25 L12.83 31.36 L13.23 30.47 L13.64 29.58 L14.07 28.71 L14.53 27.85 L15.01 26.99 L15.50 26.15 L16.02 25.31" fill="none" stroke="#111111" stroke-width="8.5" stroke-linecap="round" stroke-linejoin="round"/></svg>
