<svg xmlns="http://www.w3.org/2000/svg" viewBox="0 0 100 100"><path d="M50.00 50.00 L50.06 50.00 L50.12 50.01 L50.19 50.03 L50.25 50.05 L50.30 50.08 L50.36 50.12 L50.41 50.16 L50.46 50.21 L50.50 50.26 L50.54 50.32 L50.57 50.39 L50.60 50.45 L50.62 50.53 L50.64 50.60 L50.65 50.68 L50.65 50.76 L50.65 50.85 L50.64 50.93 L50.62 51.02 L50.60 51.11 L50.56 51.19 L50.52 51.28 L50.47 51.37 L50.41 51.45 L50.35 51.53 L50.28 51.61 L50.20 51.69 L50.11 51.76 L50.02 51.82 L49.92 51.88 L49.81 51.94 L49.69 51.99 L49.57 52.03 L49.45 52.07 L49.32 52.09 L49.19 52.11 L49.05 52.12 L48.91 52.12 L48.76 52.12 L48.61 52.10 L48.47 52.07 L48.32 52.03 L48.17 51.99 L48.02 51.93 L47.87 51.86 L47.72 51.78 L47.58 51.69 L47.44 51.59 L47.30 51.48 L47.17 51.36 L47.04 51.23 L46.92 51.09 L46.81 50.94 L46.70 50.78 L46.60 50.62 L46.51 50.44 L46.43 50.26 L46.35 50.07 L46.29 49.87 L46.24 49.66 L46.21 49.45 L46.18 49.24 L46.16 49.02 L46.16 48.79 L46.17 48.56 L46.20 48.34 L46.24 48.10 L46.29 47.87 L46.36 47.64 L46.44 47.41 L46.54 47.19 L46.65 46.96 L46.77 46.74 L46.91 46.52 L47.06 46.31 L47.23 46.11 L47.41 45.91 L47.60 45.72 L47.81 45.55 L48.02 45.38 L48.25 45.22 L48.50 45.07 L48.75 44.94 L49.01 44.81 L49.28 44.71 L49.56 44.61 L49.85 44.53 L50.15 44.47 L50.45 44.42 L50.76 44.39 L51.07 44.38 L51.39 44.39 L51.71 44.41 L52.03 44.45 L52.35 44.51 L52.67 44.59 L52.99 44.68 L53.30 44.80 L53.61 44.93 L53.92 45.09 L54.22 45.26 L54.51 45.45 L54.80 45.65 L55.07 45.88 L55.34 46.12 L55.59 46.38 L55.83 46.65 L56.06 46.95 L56.28 47.25 L56.47 47.57 L56.65 47.90 L56.82 48.25 L56.96 48.61 L57.09 48.97 L57.20 49.35 L57.29 49.74 L57.35 50.13 L57.40 50.53 L57.42 50.94 L57.42 51.35 L57.40 51.76 L57.35 52.17 L57.29 52.59 L57.19 53.00 L57.08 53.41 L56.94 53.82 L56.78 54.22 L56.59 54.61 L56.38 55.00 L56.15 55.38 L55.90 55.74 L55.63 56.10 L55.33 56.44 L55.01 56.77 L54.67 57.08 L54.32 57.38 L53.94 57.66 L53.55 57.91 L53.14 58.15 L52.72 58.37 L52.28 58.56 L51.83 58.74 L51.37 58.88 L50.89 59.01 L50.41 59.11 L49.92 59.18 L49.42 59.22 L48.92 59.24 L48.41 59.23 L47.90 59.19 L47.39 59.13 L46.88 59.03 L46.38 58.91 L45.88 58.76 L45.38 58.58 L44.90 58.37 L44.42 58.14 L43.95 57.87 L43.49 57.59 L43.05 57.27 L42.62 56.93 L42.21 56.56 L41.82 56.17 L41.45 55.76 L41.10 55.32 L40.77 54.86 L40.46 54.38 L40.18 53.89 L39.93 53.37 L39.70 52.84 L39.50 52.30 L39.33 51.74 L39.19 51.17 L39.08 50.59 L39.00 50.00 L38.95 49.40 L38.94 48.80 L38.96 48.20 L39.01 47.59 L39.09 46.99 L39.21 46.39 L39.36 45.79 L39.55 45.20 L39.77 44.61 L40.02 44.04 L40.30 43.47 L40.62 42.92 L40.96 42.39 L41.34 41.87 L41.75 41.37 L42.18 40.89 L42.65 40.43 L43.14 40.00 L43.65 39.59 L44.19 39.21 L44.75 38.85 L45.34 38.53 L45.94 38.23 L46.56 37.97 L47.20 37.74 L47.86 37.55 L48.52 37.39 L49.20 37.27 L49.88 37.18 L50.58 37.13 L51.28 37.11 L51.98 37.14 L52.68 37.20 L53.38 37.31 L54.08 37.45 L54.77 37.63 L55.46 37.84 L56.13 38.10 L56.80 38.39 L57.44 38.72 L58.08 39.09 L58.69 39.49 L59.29 39.93 L59.86 40.40 L60.41 40.90 L60.94 41.44 L61.43 42.00 L61.90 42.60 L62.34 43.22 L62.74 43.86 L63.11 44.53 L63.45 45.23 L63.74 45.94 L64.00 46.67 L64.22 47.42 L64.41 48.18 L64.55 48.95 L64.64 49.74 L64.70 50.53 L64.71 51.32 L64.68 52.12 L64.61 52.92 L64.49 53.72 L64.33 54.51 L64.12 55.30 L63.88 56.08 L63.58 56.84 L63.25 57.60 L62.88 58.33 L62.46 59.05 L62.00 59.75 L61.51 60.42 L60.97 61.07 L60.40 61.69 L59.80 62.29 L59.16 62.85 L58.49 63.37 L57.79 63.87 L57.06 64.32 L56.30 64.74 L55.52 65.12 L54.72 65.45 L53.89 65.74 L53.05 65.99 L52.19 66.19 L51.32 66.35 L50.44 66.46 L49.55 66.53 L48.66 66.54 L47.76 66.51 L46.87 66.42 L45.97 66.29 L45.08 66.11 L44.20 65.88 L43.33 65.61 L42.47 65.28 L41.63 64.91 L40.81 64.49 L40.00 64.02 L39.22 63.51 L38.47 62.96 L37.74 62.37 L37.05 61.73 L36.39 61.06 L35.76 60.35 L35.17 59.60 L34.62 58.82 L34.11 58.00 L33.65 57.16 L33.23 56.29 L32.85 55.40 L32.53 54.49 L32.25 53.55 L32.02 52.60 L31.84 51.63 L31.72 50.66 L31.65 49.67 L31.63 48.68 L31.67 47.68 L31.76 46.69 L31.90 45.70 L32.10 44.71 L32.35 43.73 L32.65 42.77 L33.01 41.82 L33.42 40.89 L33.88 39.97 L34.39 39.08 L34.95 38.22 L35.56 37.39 L36.22 36.58 L36.92 35.81 L37.66 35.08 L38.44 34.39 L39.27 33.74 L40.12 33.13 L41.02 32.57 L41.94 32.05 L42.90 31.58 L43.88 31.17 L44.89 30.81 L45.92 30.50 L46.96 30.24 L48.02 30.05 L49.10 29.91 L50.18 29.82 L51.27 29.80 L52.36 29.84 L53.46 29.93 L54.55 30.08 L55.63 30.30 L56.70 30.57 L57.76 30.90 L58.81 31.29 L59.83 31.73 L60.83 32.24 L61.81 32.79 L62.75 33.40 L63.67 34.07 L64.55 34.78 L65.40 35.54 L66.20 36.35 L66.96 37.21 L67.68 38.10 L68.35 39.04 L68.97 40.01 L69.53 41.02 L70.05 42.06 L70.50 43.13 L70.90 44.23 L71.25 45.35 L71.53 46.49 L71.75 47.65 L71.91 48.82 L72.00 50.00 L72.03 51.19 L72.00 52.38 L71.90 53.57 L71.74 54.76 L71.51 55.94 L71.22 57.11 L70.86 58.26 L70.45 59.40 L69.97 60.51 L69.43 61.61 L68.82 62.67 L68.17 63.70 L67.45 64.70 L66.68 65.66 L65.85 66.58 L64.98 67.46 L64.06 68.29 L63.09 69.07 L62.07 69.80 L61.02 70.48 L59.93 71.10 L58.80 71.66 L57.64 72.16 L56.46 72.60 L55.25 72.98 L54.01 73.29 L52.76 73.54 L51.49 73.71 L50.21 73.82 L48.93 73.86 L47.64 73.83 L46.35 73.73 L45.07 73.56 L43.79 73.32 L42.52 73.02 L41.27 72.64 L40.04 72.19 L38.83 71.68 L37.65 71.10 L36.50 70.46 L35.38 69.75 L34.29 68.99 L33.25 68.16 L32.25 67.27 L31.30 66.34 L30.40 65.34 L29.55 64.30 L28.76 63.21 L28.02 62.08 L27.35 60.91 L26.73 59.70 L26.19 58.45 L25.71 57.18 L25.29 55.87 L24.95 54.55 L24.68 53.20 L24.48 51.84 L24.36 50.46 L24.31 49.08 L24.33 47.69 L24.43 46.30 L24.61 44.92 L24.86 43.54 L25.18 42.18 L25.58 40.83 L26.05 39.51 L26.59 38.21 L27.21 36.93 L27.89 35.69 L28.64 34.48 L29.46 33.32 L30.34 32.19 L31.28 31.11 L32.29 30.09 L33.34 29.11 L34.46 28.20 L35.62 27.34 L36.83 26.54 L38.08 25.81 L39.38 25.15 L40.71 24.55 L42.07 24.03 L43.47 23.58 L44.89 23.20 L46.33 22.90 L47.79 22.68 L49.26 22.54 L50.74 22.48 L52.23 22.50 L53.71 22.59 L55.19 22.77 L56.67 23.03 L58.13 23.37 L59.57 23.78 L60.99 24.28 L62.39 24.85 L63.76 25.50 L65.09 26.22 L66.38 27.02 L67.64 27.89 L68.84 28.82 L70.00 29.82 L71.10 30.88 L72.15 32.01 L73.14 33.19 L74.06 34.43 L74.92 35.71 L75.71 37.05 L76.43 38.42 L77.07 39.84 L77.64 41.29 L78.13 42.78 L78.54 44.29 L78.87 45.83 L79.11 47.38 L79.27 48.95 L79.35 50.53 L79.34 52.11 L79.25 53.69 L79.07 55.28 L78.80 56.85 L78.45 58.41 L78.02 59.95 L77.50 61.46 L76.90 62.95 L76.22 64.41 L75.46 65.84 L74.62 67.22 L73.71 68.56 L72.72 69.85 L71.66 71.09 L70.54 72.27 L69.35 73.39 L68.10 74.45 L66.79 75.44 L65.43 76.36 L64.02 77.21 L62.56 77.98 L61.06 78.68 L59.52 79.29 L57.94 79.82 L56.34 80.27 L54.71 80.63 L53.06 80.90 L51.40 81.08 L49.72 81.18 L48.04 81.18 L46.36 81.09 L44.68 80.91 L43.01 80.64 L41.35 80.28 L39.71 79.83 L38.10 79.29 L36.51 78.66 L34.96 77.95 L33.44 77.16 L31.97 76.28 L30.54 75.32 L29.17 74.28 L27.85 73.17 L26.59 71.99 L25.39 70.74 L24.26 69.42 L23.20 68.04 L22.21 66.60 L21.30 65.11 L20.47 63.57 L19.73 61.99 L19.07 60.36 L18.49 58.70 L18.01 57.00 L17.62 55.28 L17.32 53.53 L17.11 51.77 L17.00 50.00 L16.99 48.22 L17.07 46.44 L17.24 44.66 L17.52 42.89 L17.89 41.14 L18.35 39.40 L18.91 37.69 L19.56 36.01 L20.30 34.36 L21.13 32.75 L22.05 31.19 L23.05 29.67 L24.14 28.21 L25.30 26.81 L26.54 25.47 L27.86 24.19 L29.24 22.99 L30.69 21.86 L32.20 20.80 L33.77 19.83 L35.39 18.95 L37.06 18.15 L38.77 17.44 L40.52 16.82 L42.31 16.30 L44.12 15.87 L45.96 15.54 L47.82 15.31 L49.69 15.18 L51.57 15.15 L53.45 15.22 L55.32 15.40 L57.19 15.67 L59.04 16.05 L60.88 16.52 L62.69 17.10 L64.46 17.77 L66.21 18.54 L67.91 19.40 L69.56 20.36 L71.17 21.41 L72.72 22.54 L74.21 23.76 L75.63 25.05 L76.98 26.43 L78.26 27.87 L79.46 29.39 L80.58 30.97 L81.62 32.62 L82.56 34.32 L83.42 36.07 L84.18 37.87 L84.84 39.71 L85.41 41.58 L85.87 43.49 L86.23 45.42 L86.49 47.38 L86.64 49.34 L86.68 51.32 L86.62 53.30 L86.46 55.27 L86.18 57.24 L85.80 59.19 L85.31 61.12 L84.72 63.03 L84.03 64.91 L83.23 66.74 L82.34 68.54 L81.34 70.29 L80.26 71.98 L79.08 73.62 L77.81 75.19 L76.46 76.70 L75.03 78.13 L73.51 79.49 L71.93 80.76 L70.28 81.95 L68.56 83.05 L66.78 84.06 L64.95 84.97 L63.06 85.78 L61.14 86.49 L59.17 87.10 L57.17 87.60 L55.15 88.00 L53.10 88.28 L51.04 88.45 L48.96 88.52 L46.89 88.47 L44.81 88.31 L42.74 88.03 L40.69 87.65 L38.66 87.15 L36.66 86.55 L34.68 85.84 L32.75 85.02 L30.86 84.09 L29.02 83.06 L27.23 81.94 L25.51 80.71 L23.85 79.40 L22.26 77.99 L20.74 76.50 L19.31 74.93 L17.96 73.28 L16.70 71.55 L15.54 69.76 L14.47 67.90 L13.50 65.99 L12.63 64.02 L11.87 62.01 L11.22 59.96 L10.68 57.87 L10.25 55.75 L9.93 53.61 L9.73 51.45 L9.65 49.28 L9.69 47.10 L9.84 44.93 L10.11 42.76 L10.50 40.61 L11.00 38.48 L11.62 36.37 L12.35 34.30 L13.19 32.27 L14.14 30.29 L15.20 28.35 L16.37 26.47 L17.63 24.66 L18.99 22.91 L20.45 21.24 L22.00 19.64 L23.64 18.13 L25.35 16.71 L27.15 15.38 L29.01 14.14 L30.94 13.01 L32.94 11.98 L34.98 11.06 L37.08 10.25 L39.23 9.55 L41.41 8.96 L43.62 8.50 L45.85 8.15 L48.11 7.93 L50.38 7.82 L52.65 7.84 L54.93 7.98 L57.19 8.25 L59.44 8.64 L61.67 9.14 L63.87 9.77 L66.04 10.52 L68.17 11.38 L70.25 12.36 L72.28 13.45 L74.25 14.65 L76.16 15.96 L78.00 17.37 L79.76 18.88 L81.43 20.48 L83.02 22.18 L84.52 23.96 L85.93 25.82 L87.23 27.75 L88.43 29.76 L89.52 31.83 L90.50 33.96 L91.37 36.15 L92.11 38.38 L92.74 40.65 L93.24 42.95 L93.62 45.28 L93.87 47.63 L94.00 50.00" fill="none" stroke="#111111" stroke-width="2.0" stroke-linecap="round" stroke-linejoin="round"/></svg>
