<svg xmlns="http://www.w3.org/2000/svg" viewBox="0 0 100 100"><path d="M50.00 50.00 L50.06 50.00 L50.12 50.01 L50.18 50.02 L50.24 50.03 L50.30 50.05 L50.36 50.07 L50.42 50.10 L50.48 50.13 L50.53 50.16 L50.58 50.20 L50.63 50.24 L50.68 50.28 L50.73 50.33 L50.77 50.38 L50.82 50.43 L50.85 50.49 L50.89 50.55 L50.92 50.61 L50.95 50.67 L50.98 50.74 L51.00 50.81 L51.02 50.88 L51.04 50.96 L51.05 51.03 L51.06 51.11 L51.07 51.19 L51.07 51.27 L51.06 51.35 L51.05 51.44 L51.04 51.52 L51.03 51.60 L51.01 51.69 L50.98 51.77 L50.95 51.86 L50.92 51.95 L50.88 52.03 L50.83 52.11 L50.78 52.20 L50.73 52.28 L50.67 52.36 L50.61 52.44 L50.55 52.52 L50.48 52.60 L50.40 52.67 L50.32 52.75 L50.24 52.82 L50.15 52.88 L50.06 52.95 L49.96 53.01 L49.86 53.07 L49.76 53.12 L49.65 53.18 L49.54 53.22 L49.43 53.27 L49.31 53.31 L49.19 53.34 L49.06 53.37 L48.94 53.40 L48.81 53.42 L48.67 53.44 L48.54 53.45 L48.40 53.46 L48.26 53.46 L48.12 53.46 L47.98 53.45 L47.84 53.43 L47.70 53.41 L47.55 53.38 L47.41 53.35 L47.26 53.31 L47.11 53.27 L46.97 53.22 L46.82 53.16 L46.68 53.10 L46.53 53.03 L46.39 52.96 L46.24 52.88 L46.10 52.79 L45.96 52.70 L45.83 52.60 L45.69 52.49 L45.56 52.38 L45.43 52.26 L45.30 52.14 L45.18 52.01 L45.06 51.87 L44.94 51.73 L44.83 51.59 L44.72 51.44 L44.62 51.28 L44.52 51.12 L44.43 50.95 L44.34 50.78 L44.26 50.60 L44.18 50.42 L44.11 50.23 L44.04 50.04 L43.98 49.85 L43.93 49.65 L43.88 49.45 L43.84 49.24 L43.81 49.04 L43.78 48.83 L43.76 48.61 L43.75 48.40 L43.75 48.18 L43.75 47.96 L43.76 47.74 L43.78 47.51 L43.81 47.29 L43.85 47.06 L43.89 46.84 L43.94 46.61 L44.00 46.39 L44.07 46.16 L44.15 45.94 L44.23 45.71 L44.32 45.49 L44.43 45.27 L44.54 45.05 L44.66 44.83 L44.78 44.62 L44.92 44.41 L45.06 44.20 L45.21 44.00 L45.37 43.80 L45.54 43.60 L45.72 43.41 L45.90 43.22 L46.09 43.04 L46.29 42.86 L46.49 42.69 L46.71 42.52 L46.93 42.36 L47.16 42.21 L47.39 42.06 L47.63 41.92 L47.88 41.79 L48.13 41.67 L48.39 41.55 L48.65 41.44 L48.92 41.34 L49.20 41.25 L49.48 41.17 L49.76 41.10 L50.05 41.03 L50.34 40.98 L50.64 40.93 L50.93 40.90 L51.24 40.87 L51.54 40.85 L51.85 40.85 L52.16 40.85 L52.47 40.87 L52.78 40.89 L53.09 40.93 L53.40 40.98 L53.72 41.03 L54.03 41.10 L54.34 41.18 L54.66 41.27 L54.97 41.38 L55.27 41.49 L55.58 41.61 L55.88 41.75 L56.18 41.89 L56.48 42.05 L56.78 42.22 L57.07 42.39 L57.35 42.58 L57.63 42.78 L57.91 42.99 L58.18 43.21 L58.44 43.44 L58.70 43.68 L58.95 43.93 L59.19 44.19 L59.43 44.46 L59.65 44.74 L59.87 45.02 L60.09 45.32 L60.29 45.62 L60.48 45.94 L60.67 46.26 L60.84 46.59 L61.00 46.92 L61.16 47.26 L61.30 47.61 L61.43 47.97 L61.55 48.33 L61.66 48.70 L61.76 49.07 L61.84 49.45 L61.92 49.83 L61.98 50.22 L62.02 50.60 L62.06 51.00 L62.08 51.39 L62.09 51.79 L62.09 52.19 L62.07 52.60 L62.04 53.00 L62.00 53.40 L61.94 53.81 L61.87 54.21 L61.78 54.62 L61.68 55.02 L61.57 55.42 L61.44 55.82 L61.30 56.21 L61.15 56.61 L60.98 57.00 L60.80 57.38 L60.61 57.76 L60.40 58.14 L60.18 58.51 L59.94 58.88 L59.70 59.24 L59.44 59.59 L59.16 59.93 L58.88 60.27 L58.58 60.60 L58.27 60.92 L57.95 61.23 L57.61 61.53 L57.27 61.83 L56.91 62.11 L56.55 62.38 L56.17 62.64 L55.79 62.89 L55.39 63.13 L54.98 63.35 L54.57 63.56 L54.15 63.76 L53.72 63.95 L53.28 64.12 L52.83 64.28 L52.38 64.43 L51.92 64.56 L51.45 64.67 L50.98 64.77 L50.51 64.86 L50.03 64.93 L49.54 64.98 L49.06 65.02 L48.56 65.04 L48.07 65.05 L47.58 65.04 L47.08 65.01 L46.58 64.97 L46.09 64.91 L45.59 64.84 L45.09 64.75 L44.60 64.64 L44.10 64.51 L43.61 64.37 L43.12 64.21 L42.64 64.04 L42.16 63.84 L41.69 63.64 L41.22 63.41 L40.75 63.17 L40.29 62.92 L39.84 62.64 L39.40 62.35 L38.97 62.05 L38.54 61.73 L38.12 61.40 L37.71 61.05 L37.32 60.69 L36.93 60.31 L36.55 59.92 L36.19 59.51 L35.84 59.10 L35.50 58.66 L35.17 58.22 L34.86 57.77 L34.56 57.30 L34.28 56.82 L34.01 56.33 L33.75 55.83 L33.52 55.32 L33.29 54.81 L33.09 54.28 L32.90 53.74 L32.73 53.20 L32.57 52.65 L32.43 52.09 L32.31 51.53 L32.21 50.96 L32.13 50.39 L32.06 49.81 L32.02 49.22 L31.99 48.64 L31.98 48.05 L32.00 47.46 L32.03 46.87 L32.08 46.28 L32.15 45.69 L32.24 45.10 L32.34 44.51 L32.47 43.92 L32.62 43.33 L32.79 42.75 L32.98 42.18 L33.18 41.60 L33.41 41.03 L33.65 40.47 L33.92 39.92 L34.20 39.37 L34.50 38.83 L34.82 38.29 L35.16 37.77 L35.52 37.26 L35.89 36.75 L36.29 36.26 L36.70 35.78 L37.12 35.31 L37.56 34.86 L38.02 34.41 L38.50 33.99 L38.99 33.57 L39.49 33.17 L40.01 32.79 L40.54 32.42 L41.09 32.07 L41.64 31.73 L42.21 31.42 L42.80 31.12 L43.39 30.84 L44.00 30.57 L44.61 30.33 L45.23 30.11 L45.87 29.90 L46.51 29.72 L47.16 29.56 L47.81 29.41 L48.47 29.29 L49.14 29.19 L49.81 29.12 L50.49 29.06 L51.17 29.02 L51.85 29.01 L52.54 29.02 L53.22 29.05 L53.91 29.11 L54.59 29.19 L55.28 29.28 L55.96 29.41 L56.64 29.55 L57.32 29.72 L58.00 29.91 L58.67 30.12 L59.33 30.36 L59.99 30.61 L60.64 30.89 L61.28 31.19 L61.92 31.52 L62.54 31.86 L63.16 32.23 L63.76 32.61 L64.36 33.02 L64.94 33.45 L65.51 33.89 L66.07 34.36 L66.61 34.85 L67.14 35.35 L67.65 35.87 L68.14 36.41 L68.62 36.97 L69.09 37.55 L69.53 38.14 L69.96 38.75 L70.37 39.37 L70.75 40.01 L71.12 40.66 L71.47 41.32 L71.80 42.00 L72.10 42.69 L72.39 43.39 L72.65 44.10 L72.89 44.82 L73.10 45.55 L73.29 46.29 L73.46 47.04 L73.61 47.79 L73.73 48.55 L73.82 49.32 L73.90 50.09 L73.94 50.86 L73.96 51.64 L73.96 52.42 L73.93 53.20 L73.87 53.98 L73.79 54.76 L73.69 55.54 L73.55 56.32 L73.40 57.09 L73.21 57.87 L73.00 58.63 L72.77 59.40 L72.51 60.15 L72.23 60.90 L71.92 61.64 L71.58 62.37 L71.22 63.10 L70.84 63.81 L70.43 64.51 L70.00 65.20 L69.55 65.88 L69.07 66.54 L68.57 67.19 L68.05 67.83 L67.51 68.44 L66.94 69.05 L66.36 69.63 L65.75 70.20 L65.13 70.75 L64.49 71.27 L63.82 71.78 L63.14 72.27 L62.45 72.74 L61.73 73.18 L61.01 73.61 L60.26 74.01 L59.50 74.38 L58.73 74.73 L57.94 75.06 L57.15 75.37 L56.34 75.64 L55.52 75.89 L54.69 76.12 L53.85 76.32 L53.01 76.49 L52.16 76.63 L51.30 76.75 L50.43 76.84 L49.57 76.90 L48.69 76.94 L47.82 76.94 L46.94 76.92 L46.07 76.86 L45.19 76.78 L44.31 76.67 L43.44 76.54 L42.57 76.37 L41.70 76.17 L40.84 75.95 L39.98 75.70 L39.14 75.42 L38.29 75.11 L37.46 74.77 L36.64 74.41 L35.83 74.02 L35.02 73.60 L34.23 73.15 L33.46 72.68 L32.70 72.18 L31.95 71.66 L31.22 71.11 L30.50 70.54 L29.81 69.94 L29.13 69.32 L28.47 68.68 L27.83 68.01 L27.21 67.32 L26.61 66.61 L26.04 65.88 L25.48 65.13 L24.95 64.36 L24.45 63.57 L23.97 62.77 L23.51 61.94 L23.08 61.11 L22.68 60.25 L22.31 59.38 L21.96 58.50 L21.64 57.61 L21.35 56.70 L21.09 55.78 L20.85 54.86 L20.65 53.92 L20.48 52.98 L20.34 52.03 L20.23 51.07 L20.15 50.11 L20.10 49.14 L20.08 48.17 L20.09 47.20 L20.14 46.23 L20.21 45.25 L20.32 44.28 L20.46 43.31 L20.63 42.35 L20.84 41.39 L21.07 40.43 L21.34 39.48 L21.64 38.53 L21.97 37.60 L22.33 36.67 L22.72 35.76 L23.14 34.85 L23.59 33.96 L24.07 33.08 L24.58 32.22 L25.12 31.37 L25.69 30.54 L26.28 29.72 L26.90 28.93 L27.55 28.15 L28.23 27.39 L28.93 26.65 L29.65 25.94 L30.40 25.24 L31.18 24.57 L31.97 23.93 L32.79 23.31 L33.63 22.71 L34.49 22.15 L35.37 21.60 L36.27 21.09 L37.19 20.61 L38.12 20.15 L39.07 19.72 L40.03 19.33 L41.01 18.96 L42.01 18.63 L43.01 18.33 L44.03 18.06 L45.05 17.82 L46.09 17.62 L47.13 17.45 L48.18 17.31 L49.23 17.21 L50.29 17.14 L51.36 17.10 L52.43 17.10 L53.49 17.14 L54.56 17.21 L55.63 17.31 L56.70 17.45 L57.76 17.62 L58.82 17.83 L59.87 18.07 L60.92 18.35 L61.95 18.66 L62.98 19.01 L64.00 19.39 L65.01 19.80 L66.01 20.25 L66.99 20.73 L67.96 21.24 L68.92 21.78 L69.85 22.36 L70.77 22.97 L71.68 23.61 L72.56 24.27 L73.42 24.97 L74.26 25.70 L75.08 26.45 L75.87 27.23 L76.64 28.04 L77.38 28.88 L78.10 29.74 L78.79 30.62 L79.46 31.53 L80.09 32.46 L80.70 33.41 L81.27 34.38 L81.81 35.38 L82.33 36.39 L82.81 37.42 L83.25 38.46 L83.67 39.53 L84.05 40.60 L84.39 41.69 L84.70 42.80 L84.98 43.91 L85.22 45.04 L85.42 46.17 L85.59 47.31 L85.72 48.46 L85.81 49.61 L85.87 50.77 L85.88 51.93 L85.86 53.10 L85.81 54.26 L85.71 55.43 L85.58 56.59 L85.41 57.75 L85.20 58.90 L84.95 60.05 L84.66 61.19 L84.34 62.33 L83.98 63.45 L83.59 64.57 L83.15 65.67 L82.69 66.77 L82.18 67.84 L81.64 68.90 L81.06 69.95 L80.45 70.98 L79.81 71.99 L79.13 72.98 L78.42 73.95 L77.68 74.89 L76.90 75.82 L76.10 76.72 L75.26 77.59 L74.40 78.44 L73.51 79.26 L72.59 80.05 L71.64 80.82 L70.67 81.55 L69.67 82.26 L68.64 82.93 L67.60 83.57 L66.53 84.17 L65.45 84.75 L64.34 85.28 L63.21 85.79 L62.07 86.25 L60.91 86.68 L59.73 87.08 L58.54 87.43 L57.34 87.75 L56.13 88.03 L54.90 88.26 L53.67 88.46 L52.43 88.62 L51.18 88.74 L49.93 88.82 L48.67 88.86 L47.42 88.86 L46.15 88.82 L44.89 88.73 L43.64 88.61 L42.38 88.44 L41.13 88.24 L39.88 87.99 L38.64 87.70 L37.41 87.37 L36.19 87.00 L34.98 86.60 L33.78 86.15 L32.59 85.66 L31.42 85.13 L30.26 84.57 L29.12 83.96 L28.00 83.32 L26.90 82.65 L25.82 81.93 L24.77 81.18 L23.73 80.40 L22.72 79.58 L21.74 78.72 L20.78 77.84 L19.85 76.92 L18.95 75.97 L18.08 74.99 L17.24 73.98 L16.43 72.95 L15.65 71.88 L14.91 70.79 L14.20 69.68 L13.53 68.54 L12.90 67.38 L12.30 66.20 L11.74 64.99 L11.21 63.77 L10.73 62.53 L10.29 61.27 L9.88 59.99 L9.52 58.71 L9.20 57.40 L8.92 56.09 L8.69 54.77 L8.49 53.44 L8.34 52.10 L8.24 50.75 L8.17 49.40 L8.15 48.05 L8.18 46.69 L8.24 45.33 L8.35 43.98 L8.51 42.62 L8.71 41.28 L8.95 39.93 L9.24 38.59 L9.57 37.26 L9.95 35.94 L10.37 34.64 L10.83 33.34 L11.33 32.06 L11.87 30.79 L12.46 29.54 L13.09 28.30 L13.76 27.09 L14.46 25.90 L15.21 24.73" fill="none" stroke="#111111" stroke-width="3.4" stroke-linecap="round" stroke-linejoin="round"/></svg>
